<svg width="221" height="221" viewBox="0 0 221 221" fill="none" xmlns="http://www.w3.org/2000/svg">
<g opacity="0.91">
<path fill-rule="evenodd" clip-rule="evenodd" d="M66.4868 0C66.6986 0 66.9103 0 67.1221 0C68.7943 2.24823 70.1921 4.62065 71.3156 7.11727C69.3494 6.32062 67.3585 5.60043 65.3431 4.95667C65.4263 3.22623 65.8076 1.57401 66.4868 0Z" fill="#81D600"/>
<path fill-rule="evenodd" clip-rule="evenodd" d="M82.2439 0.381284C82.608 0.324707 82.9257 0.409435 83.197 0.635472C83.503 2.28826 83.6936 3.94048 83.7688 5.59214C82.1147 4.80754 80.505 3.96024 78.94 3.05026C80.0438 2.15763 81.145 1.26796 82.2439 0.381284Z" fill="#81D600"/>
<path fill-rule="evenodd" clip-rule="evenodd" d="M90.2496 4.82957C90.9744 4.69436 91.5039 4.94855 91.838 5.59214C92.5671 6.87822 93.0754 8.23389 93.3629 9.65915C92.9468 8.98883 92.375 8.50164 91.6474 8.19757C90.6216 7.76377 89.5627 7.44604 88.4705 7.24436C88.8464 6.28123 89.4395 5.47631 90.2496 4.82957Z" fill="#81D600"/>
<path fill-rule="evenodd" clip-rule="evenodd" d="M55.6855 4.95667C56.0849 5.03719 56.4026 5.24901 56.6385 5.59214C57.5586 6.92878 58.4056 8.28446 59.18 9.65916C57.5963 9.35625 56.0079 9.0597 54.4147 8.7695C54.3558 7.64404 54.5464 6.54257 54.9866 5.46505C55.1772 5.21484 55.4101 5.04538 55.6855 4.95667Z" fill="#81D600"/>
<path fill-rule="evenodd" clip-rule="evenodd" d="M78.0505 5.08377C80.0682 5.69297 82.059 6.39198 84.0229 7.18082C84.4049 8.30717 84.6166 9.4722 84.6583 10.6759C84.616 10.8877 84.5736 11.0996 84.5312 11.3114C83.4544 10.5521 82.3955 9.76839 81.3544 8.96014C79.7515 8.06568 78.0571 7.40902 76.2714 6.99018C76.7811 6.26888 77.3741 5.63341 78.0505 5.08377Z" fill="#81D600"/>
<path fill-rule="evenodd" clip-rule="evenodd" d="M65.089 6.4818C66.1603 6.95408 67.1769 7.52601 68.1387 8.19757C69.2999 8.45613 70.4436 8.77387 71.5697 9.15078C72.2187 10.4614 72.7693 11.817 73.2217 13.2178C72.8863 13.3266 72.5474 13.3055 72.2051 13.1542C71.7214 12.5428 71.1284 12.0768 70.4261 11.7562C68.4691 11.3834 66.563 10.8327 64.7077 10.104C64.6339 9.99054 64.5915 9.86345 64.5807 9.7227C64.7572 8.64206 64.9267 7.56176 65.089 6.4818Z" fill="#81D600"/>
<path fill-rule="evenodd" clip-rule="evenodd" d="M87.7081 8.6424C89.7403 9.23504 91.6464 10.1035 93.4264 11.2478C93.9398 11.9573 94.2999 12.7411 94.5065 13.5991C95.4619 14.3417 96.2666 15.189 96.9209 16.141C93.097 14.2611 89.1365 12.7148 85.0395 11.502C84.9178 11.3562 84.9601 11.2291 85.1666 11.1207C86.2462 10.5281 87.0934 9.70197 87.7081 8.6424Z" fill="#81D600"/>
<path fill-rule="evenodd" clip-rule="evenodd" d="M75.0007 10.1675C76.3307 10.5049 77.6437 10.9074 78.94 11.3749C82.4133 12.8577 85.8867 14.3404 89.36 15.8232C92.4842 16.8578 95.6187 17.8533 98.7635 18.8099C99.1903 19.9037 99.4869 21.0263 99.653 22.1779C93.4203 20.2551 87.2785 18.0522 81.2273 15.569C79.2164 14.9392 77.1832 14.3883 75.1278 13.9168C74.9806 13.7886 74.8959 13.6192 74.8736 13.4084C74.9871 12.3314 75.0294 11.2511 75.0007 10.1675Z" fill="#81D600"/>
<path fill-rule="evenodd" clip-rule="evenodd" d="M45.9008 10.9301C46.1167 10.9097 46.3285 10.9309 46.5362 10.9936C47.7222 12.2646 48.9083 13.5355 50.0942 14.8065C48.7367 14.7987 47.3813 14.7139 46.0279 14.5523C45.4404 13.343 45.3981 12.1356 45.9008 10.9301Z" fill="#81D600"/>
<path fill-rule="evenodd" clip-rule="evenodd" d="M54.4148 10.9301C54.8701 11.1468 55.3571 11.2739 55.8761 11.3114C57.3509 11.0623 58.791 11.1894 60.1966 11.6927C61.3122 13.1396 62.35 14.6435 63.3099 16.2045C63.2676 16.2681 63.2252 16.3316 63.1828 16.3951C60.522 15.3203 57.7687 14.8543 54.9231 14.9971C54.718 13.6461 54.5486 12.2905 54.4148 10.9301Z" fill="#81D600"/>
<path fill-rule="evenodd" clip-rule="evenodd" d="M64.4536 12.9636C67.6147 13.8705 70.7915 14.7178 73.9841 15.5055C74.0929 16.0228 74.2412 16.5311 74.4289 17.0306C74.5338 16.6121 74.5974 16.1885 74.6195 15.7597C76.1428 16.0627 77.6254 16.5075 79.0671 17.0942C80.7836 18.0586 82.5202 18.9905 84.2771 19.8902C89.287 21.7794 94.3276 23.5798 99.3989 25.2917C99.1864 26.6721 98.8687 28.0278 98.4458 29.3588C97.0148 28.9664 95.5958 28.5216 94.1889 28.0243C91.6474 26.9227 89.1059 25.8213 86.5644 24.7198C85.4554 24.2371 84.3118 23.8558 83.1334 23.576C80.8085 23.7311 78.4788 23.7735 76.1444 23.7031C74.9918 23.5929 73.8481 23.4235 72.7134 23.1947C69.9344 22.355 67.0965 21.8677 64.1994 21.7331C61.567 21.9334 58.9409 21.8699 56.3209 21.5425C56.2573 21.4789 56.1938 21.4154 56.1303 21.3518C55.8344 20.1261 55.5591 18.8975 55.3043 17.6661C58.9176 18.0645 62.5181 18.6365 66.1055 19.3819C68.5567 20.0438 71.0135 20.6792 73.4758 21.2883C75.2368 21.4638 76.9946 21.6544 78.7494 21.8602C79.2418 21.7777 79.729 21.6718 80.2107 21.5425C79.8628 20.4744 79.1427 19.7966 78.0505 19.509C73.5315 18.9778 69.0839 18.0882 64.7077 16.84C64.4869 15.5638 64.4022 14.2718 64.4536 12.9636Z" fill="#81D600"/>
<path fill-rule="evenodd" clip-rule="evenodd" d="M46.282 16.0139C47.9987 16.1659 49.6931 16.4413 51.365 16.84C52.7895 18.4553 54.3144 19.9594 55.9396 21.3518C55.8549 21.3941 55.7703 21.4366 55.6855 21.4789C52.5135 20.8528 49.3366 20.2597 46.155 19.6996C46.1397 18.4683 46.182 17.2398 46.282 16.0139Z" fill="#81D600"/>
<path fill-rule="evenodd" clip-rule="evenodd" d="M37.2598 21.0976C40.5122 20.7561 43.5196 21.434 46.282 23.1311C46.4026 22.7974 46.4026 22.4586 46.282 22.1144C49.6313 22.8562 53.02 23.3434 56.4479 23.576C57.7644 23.8139 59.0775 24.0681 60.3872 24.3385C61.6926 24.5066 62.9634 24.3795 64.1994 23.9573C68.552 24.3862 72.8725 25.064 77.161 25.9908C79.8188 25.7823 82.4449 25.9942 85.0395 26.6262C88.0537 27.3162 91.0187 28.1636 93.9347 29.1681C95.2477 29.8248 96.5609 30.4814 97.874 31.1381C98.716 32.5693 99.3513 34.0944 99.7801 35.7135C99.7378 35.7982 99.6953 35.8829 99.653 35.9676C90.8181 35.4942 82.05 34.435 73.3487 32.7903C71.9793 33.2163 70.5815 33.3646 69.1553 33.2351C67.6502 32.9964 66.1678 32.6576 64.7077 32.2184C63.1053 31.9843 61.4958 31.8148 59.8789 31.71C59.0188 31.6058 58.1717 31.4362 57.3374 31.2016C54.1352 31.0272 50.9583 31.239 47.8069 31.8371C46.6209 31.9219 45.4348 31.9219 44.2489 31.8371C42.5936 31.3698 40.9416 30.9038 39.293 30.4391C38.9406 30.1362 38.6653 29.776 38.467 29.3588C38.0749 28.3731 37.7996 27.3564 37.641 26.3085C38.5293 26.2124 39.4188 26.1912 40.3096 26.2449C45.1306 26.9006 49.9594 27.4938 54.796 28.0243C57.6391 28.1216 60.4771 28.291 63.3099 28.5326C65.2305 28.8341 67.0943 29.3425 68.9012 30.0578C69.7536 30.0945 70.6008 30.1791 71.4426 30.312C76.6504 31.2605 81.8604 32.1926 87.0727 33.108C89.5035 33.4115 91.9179 33.3268 94.3159 32.8538C94.533 32.5942 94.7871 32.3823 95.0784 32.2184C93.7488 31.5327 92.351 31.0243 90.8849 30.6932C85.2909 29.9938 79.6996 29.2737 74.1112 28.5326C70.2957 27.8287 66.4835 27.1085 62.6745 26.372C61.6193 26.2137 60.5604 26.0866 59.4977 25.9908C56.6159 25.8455 53.7355 25.6759 50.8567 25.4824C46.4287 24.7752 41.9811 24.2245 37.5139 23.8302C37.4344 23.7348 37.3709 23.6288 37.3233 23.5124C37.2599 22.7085 37.2387 21.9037 37.2598 21.0976Z" fill="#81D600"/>
<path fill-rule="evenodd" clip-rule="evenodd" d="M54.5418 32.6632C57.0466 32.634 59.5457 32.74 62.0392 32.9809C68.2058 34.2568 74.3689 35.549 80.5284 36.8573C81.132 36.416 81.8097 36.2042 82.5616 36.2218C83.8693 36.4177 85.1613 36.693 86.4373 37.048C87.7075 37.0281 88.9782 37.0281 90.2496 37.048C92.957 37.3494 95.6679 37.6036 98.3823 37.8105C98.9048 37.8896 99.4131 38.0167 99.9072 38.1918C99.7471 38.8528 99.5564 39.5095 99.3353 40.1618C99.2689 40.3807 99.1418 40.5502 98.9541 40.6701C95.7757 39.6405 92.5354 39.3864 89.233 39.9076C84.6502 39.7688 80.0755 39.4934 75.509 39.0815C73.7418 38.6336 72.0051 38.0827 70.299 37.4292C69.1516 36.9473 68.0503 37.0321 66.9951 37.6834C66.5968 38.0599 66.1733 38.3988 65.7243 38.7002C62.6834 39.2999 59.6337 39.8508 56.575 40.3524C55.1349 40.3947 53.6946 40.4372 52.2545 40.4795C48.818 41.3493 45.3871 42.239 41.9615 43.1485C40.646 43.1724 39.3329 43.1088 38.0222 42.9578C35.3533 43.4825 32.6847 43.5248 30.0166 43.0849C29.8946 42.6224 29.8946 42.1565 30.0166 41.6869C30.3096 41.6242 30.6061 41.5819 30.9061 41.5598C30.9061 41.3904 30.9061 41.2208 30.9061 41.0514C32.8603 41.1919 34.8087 41.3402 36.7515 41.4962C36.4974 40.9031 36.2432 40.3101 35.9891 39.7169C37.7238 39.7742 39.4605 39.7742 41.1991 39.7169C43.5318 39.4907 45.8615 39.2365 48.1881 38.9544C50.2188 38.3631 52.252 37.7701 54.2877 37.175C56.0606 36.7999 57.8396 36.7788 59.6248 37.1115C61.3625 36.99 63.0992 36.8629 64.8348 36.7302C64.7987 35.9947 64.4175 35.5499 63.6911 35.3957C58.2993 34.4899 53.0045 34.8712 47.8069 36.5396C45.4524 36.9581 43.0804 37.0852 40.6908 36.9209C38.9891 36.7442 37.2948 36.5325 35.6078 36.2854C35.3748 35.4805 35.0783 34.6967 34.7183 33.9341C36.3152 33.8586 37.8824 33.6045 39.42 33.1716C40.7801 33.6674 42.1779 34.0063 43.6135 34.1883C44.7768 34.0333 45.8993 33.7368 46.9809 33.2987C48.1644 33.6505 49.3716 33.7563 50.6025 33.6164C51.9377 33.3142 53.2509 32.9964 54.5418 32.6632Z" fill="#81D600"/>
<path fill-rule="evenodd" clip-rule="evenodd" d="M66.4868 40.6701C67.3385 41.0207 68.2281 41.1901 69.1553 41.1785C70.4902 41.0574 71.8245 40.9303 73.1581 40.7972C76.5084 41.1549 79.8547 41.5362 83.197 41.9411C84.9403 41.6219 86.6981 41.5161 88.4705 41.6233C90.1536 41.8906 91.8268 42.2084 93.4899 42.5765C95.0075 42.3693 96.5111 42.4328 98.0011 42.7672C97.5188 43.5839 96.9893 44.3677 96.4126 45.1184C96.1884 45.4074 95.913 45.6193 95.5867 45.7539C94.1196 45.3964 92.637 45.121 91.1391 44.9278C87.1591 44.4874 83.1775 44.0637 79.1941 43.6568C72.1116 43.6446 65.0377 43.8988 57.9728 44.4194C53.6249 44.713 49.389 45.5603 45.2654 46.9613C43.2614 47.8788 41.2282 48.726 39.1659 49.5032C37.4835 50.0262 35.768 50.3862 34.0194 50.5835C32.9626 49.4691 32.0096 48.2617 31.1603 46.9613C33.363 46.7615 35.5656 46.5498 37.7681 46.3258C42.8418 45.0572 47.9247 43.8287 53.0169 42.6401C55.5516 42.3227 58.093 42.0686 60.6414 41.8775C62.6324 41.5937 64.5808 41.1913 66.4868 40.6701Z" fill="#81D600"/>
<path fill-rule="evenodd" clip-rule="evenodd" d="M29 56.1756C29 55.8791 29 55.5825 29 55.286C29.8788 54.2738 30.9801 53.6172 32.3039 53.316C33.4759 53.0241 34.6619 52.8122 35.862 52.6805C35.7081 52.567 35.7081 52.4612 35.862 52.3628C36.7951 52.0313 37.727 52.0313 38.6576 52.3628C39.6858 51.7161 40.7871 51.229 41.9615 50.9012C43.985 50.3953 46.0182 49.9293 48.0611 49.5032C49.4011 49.0282 50.7564 48.6045 52.1274 48.2322C58.204 47.2188 64.3035 46.3714 70.4261 45.6904C75.3678 45.5202 80.2389 46.0285 85.0395 47.2155C88.0481 47.6817 91.0555 48.1477 94.0618 48.6135C95.1416 49.7333 95.544 51.0678 95.269 52.617C93.8694 52.2671 92.4505 51.9917 91.012 51.7909C87.9105 51.4298 84.8184 51.0273 81.7356 50.5835C82.2158 49.5445 81.9194 48.8455 80.8461 48.4864C78.072 48.3724 75.2976 48.2664 72.5228 48.1687C71.5988 48.1471 70.6881 48.2317 69.7907 48.4229C69.6322 48.6143 69.6322 48.8049 69.7907 48.9948C70.2293 49.3837 70.7376 49.6379 71.3156 49.7574C74.0238 49.9072 76.7348 49.992 79.4483 50.0116C79.5656 50.271 79.6079 50.5464 79.5754 50.8377C79.1373 50.8776 78.7138 50.9836 78.3046 51.1554C77.8386 51.1766 77.3728 51.1977 76.9068 51.2189C72.4639 50.9001 68.0164 50.6883 63.5641 50.5835C57.2577 50.731 51.031 51.5148 44.8842 52.9347C43.5153 53.3229 42.2445 53.916 41.072 54.714C38.9131 55.7868 36.6681 56.6342 34.3371 57.2559C32.8188 57.5973 31.2939 57.6396 29.7624 57.383C29.646 57.3355 29.5401 57.2719 29.4448 57.1924C29.2569 56.8546 29.1087 56.5156 29 56.1756Z" fill="#81D600"/>
<path fill-rule="evenodd" clip-rule="evenodd" d="M57.3375 53.3796C61.1981 53.3285 65.0527 53.4556 68.9012 53.7608C73.6397 53.4175 78.3839 53.3116 83.1334 53.4431C87.0732 53.6701 90.9702 54.1997 94.8242 55.0318C94.5439 56.0846 94.1627 57.1014 93.6806 58.082C91.9814 57.456 90.2447 56.9688 88.4705 56.6204C85.1248 56.6973 81.7784 56.6549 78.4317 56.4934C75.1635 56.2878 71.9019 56.0124 68.647 55.6672C64.1069 55.7992 59.6383 56.4346 55.2407 57.5737C54.1628 57.2982 53.0826 57.277 52.0004 57.5101C50.0282 58.0687 48.0797 58.7042 46.155 59.4165C44.0289 59.8926 41.9109 60.401 39.8013 60.9417C38.0625 61.462 36.4317 62.2033 34.9089 63.1658C34.0022 62.1318 33.0491 61.1361 32.0498 60.1791C32.3886 59.9672 32.7275 59.7555 33.0664 59.5436C35.7583 59.2739 38.4268 58.8503 41.072 58.2727C41.2939 58.2128 41.5057 58.128 41.7074 58.0185C42.1369 57.377 42.6876 56.8687 43.3593 56.4934C44.6216 56.1275 45.8923 55.7886 47.1716 55.4766C48.5944 54.6633 50.1193 54.1549 51.7462 53.9515C53.6297 53.766 55.4935 53.5754 57.3375 53.3796Z" fill="#81D600"/>
<path fill-rule="evenodd" clip-rule="evenodd" d="M82.8793 58.2091C84.1141 58.1679 85.3425 58.2315 86.5644 58.3998C88.6489 58.8408 90.6821 59.4339 92.664 60.1791C92.3298 60.6407 91.9485 61.0643 91.5203 61.45C92.1502 62.2922 92.828 63.0972 93.5535 63.8648C91.8099 64.4372 90.0309 64.5643 88.2164 64.2461C84.8011 63.3392 81.3702 62.4919 77.9234 61.7042C74.6678 61.1578 71.4063 61.0732 68.1387 61.45C63.7017 62.1967 59.2541 62.8745 54.796 63.4835C51.6357 63.93 48.6282 64.862 45.7737 66.2796C43.5921 67.6034 41.4318 68.9591 39.293 70.3466C38.2255 71.0535 37.2513 71.8796 36.3703 72.825C35.8274 72.5359 35.3191 72.197 34.8454 71.8082C34.7078 71.6983 34.6866 71.5712 34.7819 71.4269C36.4417 70.1414 38.1572 68.934 39.9283 67.8047C40.2077 67.4174 40.123 67.0785 39.6742 66.788C38.9314 66.349 38.2113 66.3914 37.5139 66.9151C36.0314 68.0801 34.5489 69.2451 33.0664 70.4102C32.0375 69.7202 31.2327 68.8305 30.652 67.7412C33.8627 66.6215 37.1242 65.6683 40.4366 64.8816C41.0235 64.5066 41.5742 64.0829 42.0886 63.6106C48.1261 62.0817 54.2257 60.8531 60.3872 59.9249C61.8749 59.6059 63.3574 59.2669 64.8348 58.9081C67.1534 58.838 69.4619 58.6473 71.7603 58.3362C73.1905 58.4878 74.6096 58.7209 76.0173 59.0352C77.2686 59.1299 78.5181 59.2359 79.766 59.353C80.0837 59.2894 80.4013 59.2259 80.719 59.1623C81.4181 58.7697 82.1382 58.452 82.8793 58.2091Z" fill="#81D600"/>
<path fill-rule="evenodd" clip-rule="evenodd" d="M126.72 63.2929C130.978 65.7086 135.086 68.3563 139.046 71.2363C141.343 73.1098 143.376 75.2279 145.145 77.591C145.897 78.2102 146.681 78.7821 147.496 79.3068C147.744 79.2376 147.85 79.0682 147.814 78.7984C147.771 78.4976 147.707 78.201 147.623 77.9087C146.458 76.7437 145.294 75.5787 144.129 74.4136C143.79 74.2018 143.451 73.99 143.112 73.7782C141.638 72.049 140.071 70.3968 138.411 68.8215C135.989 67.0352 133.532 65.2982 131.04 63.6106C132.952 63.3467 134.858 63.389 136.759 63.7377C140.409 66.7525 143.946 69.9087 147.369 73.2062C148.834 75.5432 150.169 77.958 151.372 80.4506C150.949 80.5354 150.525 80.62 150.101 80.7048C149.608 81.3323 149.015 81.8406 148.322 82.2299C145.908 80.6836 143.493 79.1373 141.079 77.591C140.093 75.9207 138.865 74.438 137.394 73.1427C135.236 71.4706 133.034 69.8609 130.786 68.3131C127.88 67.2623 125.084 65.9703 122.399 64.4367C123.831 63.9731 125.271 63.5918 126.72 63.2929Z" fill="#81D600"/>
<path fill-rule="evenodd" clip-rule="evenodd" d="M73.2217 63.42C76.3003 63.2882 79.3501 63.5213 82.371 64.119C84.7374 64.7809 87.1093 65.4164 89.4871 66.0254C91.5608 65.9371 93.6363 65.8948 95.7137 65.8983C97.2518 67.1826 98.8615 68.3689 100.543 69.457C99.1114 69.2048 97.6713 68.9506 96.222 68.6944C92.6148 68.2804 89.0144 67.8145 85.4208 67.2964C82.3019 66.0186 79.0827 65.6796 75.7632 66.2796C69.3617 67.4461 62.9657 68.6324 56.575 69.8382C55.5018 70.2268 54.4428 70.6504 53.3982 71.1092C51.3762 71.5051 49.3854 72.0135 47.4257 72.6343C44.3795 74.115 41.4144 75.7249 38.5305 77.4639C38.154 77.7131 37.8152 78.0096 37.5139 78.3536C36.4306 78.5354 35.4564 78.959 34.5913 79.6245C33.5206 79.3068 33.0971 78.5865 33.3205 77.4639C34.1468 76.9873 34.9516 76.4789 35.7349 75.9388C37.2174 74.6255 38.7 73.3121 40.1825 71.9988C41.037 71.3594 41.9689 70.8511 42.9781 70.4737C45.5482 69.5063 48.1321 68.5743 50.7296 67.6776C51.9038 67.4363 53.0898 67.2669 54.2877 67.1693C54.8898 67.033 55.3981 66.7365 55.8126 66.2796C58.1847 65.9406 60.5566 65.6018 62.9287 65.2629C66.3295 64.3714 69.7604 63.7572 73.2217 63.42Z" fill="#81D600"/>
<path fill-rule="evenodd" clip-rule="evenodd" d="M141.333 65.0722C146.628 67.3384 150.482 71.0877 152.897 76.32C153.594 76.5243 154.272 76.7785 154.93 77.0826C157.176 78.629 159.42 80.1752 161.665 81.7215C161.093 81.9609 160.5 82.0244 159.886 81.9122C157.901 81.5319 155.911 81.1931 153.914 80.8954C152.537 78.7561 151.16 76.6166 149.784 74.4772C148.205 72.7293 146.722 70.9076 145.336 69.0121C144.452 68.168 143.478 67.4477 142.413 66.8515C142.019 66.2725 141.659 65.6793 141.333 65.0722Z" fill="#81D600"/>
<path fill-rule="evenodd" clip-rule="evenodd" d="M121.001 65.7077C121.176 65.6877 121.345 65.709 121.51 65.7712C124.115 67.1369 126.614 68.662 129.007 70.3466C132.311 72.8037 135.615 75.261 138.919 77.7181C141.503 79.8787 144.087 82.0393 146.67 84.1999C146.791 84.2911 146.812 84.397 146.734 84.5176C146.088 84.8296 145.474 85.1897 144.891 85.5979C144.764 85.6827 144.637 85.6827 144.51 85.5979C143.752 84.7122 142.947 83.8649 142.096 83.056C141.088 82.5133 140.114 81.9203 139.173 81.2767C137.135 79.4499 135.059 77.6705 132.946 75.9388C128.064 73.0034 123.32 69.8685 118.714 66.5338C119.486 66.2416 120.248 65.9663 121.001 65.7077Z" fill="#81D600"/>
<path fill-rule="evenodd" clip-rule="evenodd" d="M113.377 67.3599C114.521 67.3918 115.623 67.6249 116.681 68.0589C122.503 70.7772 127.967 74.0393 133.073 77.8452C134.62 79.3061 135.975 80.916 137.14 82.6748C139.001 83.4777 140.695 84.5369 142.223 85.8521C142.344 85.9434 142.365 86.0492 142.286 86.1698C141.647 86.852 140.969 87.4874 140.253 88.0763C138.211 86.4156 136.284 84.6151 134.471 82.6748C133.196 81.4416 131.883 80.2553 130.532 79.1161C126.042 76.4048 121.552 73.6934 117.062 70.9821C115.172 69.9733 113.266 68.9989 111.344 68.0589C111.174 67.9742 111.174 67.8895 111.344 67.8047C112.026 67.5966 112.704 67.4482 113.377 67.3599Z" fill="#81D600"/>
<path fill-rule="evenodd" clip-rule="evenodd" d="M77.0339 67.6141C80.5411 67.38 83.9721 67.7825 87.3269 68.8215C88.0046 68.9063 88.6824 68.9909 89.36 69.0757C90.5205 69.5285 91.7065 69.9098 92.9181 70.2195C94.9473 70.3719 96.9805 70.4567 99.0177 70.4737C99.8847 70.5455 100.732 70.7149 101.559 70.9821C105.595 72.9578 109.746 74.6523 114.012 76.0659C115.426 76.7091 116.823 77.3869 118.206 78.0994C122.167 80.5672 126.106 83.0667 130.024 85.5979C130.981 86.7896 131.997 87.9334 133.073 89.0295C134.169 89.3231 134.529 88.9205 134.154 87.8221C130.719 84.4302 127.013 81.3588 123.035 78.6077C121.467 77.7313 119.858 76.9264 118.206 76.193C113.067 73.9833 107.857 71.9498 102.576 70.0924C104.853 70.0942 107.119 69.9459 109.374 69.6476C115.289 71.9799 120.859 74.9243 126.084 78.4806C130.927 81.9244 135.586 85.6101 140.062 89.5378C139.695 90.0835 139.314 90.6129 138.919 91.1265C138.283 90.5758 137.69 89.9827 137.14 89.3472C136.961 89.7278 136.876 90.1302 136.886 90.5546C136.946 91.0018 136.967 91.4467 136.949 91.8891C136.449 92.6651 135.835 93.343 135.107 93.9226C133.416 91.4886 131.509 89.222 129.388 87.123C125.428 84.4001 121.319 81.9006 117.062 79.6245C112.996 77.8452 108.929 76.0659 104.863 74.2865C102.034 73.1873 99.1114 72.4671 96.095 72.1259C94.3634 71.9427 92.6692 72.1121 91.012 72.6343C87.0125 74.6545 82.7767 75.5017 78.3046 75.1762C72.2797 76.356 66.2649 77.5845 60.2601 78.8619C58.9744 79.399 57.7037 79.971 56.4479 80.5777C55.6293 80.4052 54.8246 80.4688 54.0335 80.7683C49.15 83.464 44.2788 86.1542 39.42 88.8388C39.7327 86.8933 40.6645 85.3046 42.2157 84.0728C44.2081 82.8224 46.1565 81.5092 48.0611 80.1329C50.5169 79.0106 53.0161 77.9939 55.5584 77.0826C56.6213 77.0426 57.6802 76.9578 58.7353 76.8284C62.5589 75.7664 66.3711 74.6649 70.1719 73.524C74.5849 73.2409 78.9901 72.8596 83.3876 72.3801C84.6497 72.2234 85.878 71.9269 87.0727 71.4905C85.9818 70.6747 84.7534 70.2087 83.3876 70.0924C81.3557 70.1065 79.3225 70.1489 77.288 70.2195C70.5832 71.896 63.8906 73.6118 57.2104 75.3668C55.3063 75.074 53.485 75.3493 51.7462 76.193C47.6776 78.2273 43.6535 80.3244 39.6742 82.4841C38.5232 82.0568 37.4219 81.5272 36.3703 80.8954C40.3741 78.5017 44.4405 76.2141 48.5694 74.0323C51.854 73.1773 55.1156 72.2453 58.354 71.2363C64.6352 70.2128 70.8618 69.0054 77.0339 67.6141Z" fill="#81D600"/>
<path fill-rule="evenodd" clip-rule="evenodd" d="M92.2827 74.223C94.6636 74.1546 96.9932 74.4724 99.2718 75.1762C103.506 76.4042 107.699 77.7599 111.852 79.2432C115.075 80.6644 118.252 82.1895 121.383 83.8186C123.113 84.8273 124.659 86.0772 126.021 87.5679C127.148 88.7374 128.228 89.9448 129.261 91.1901C132.03 92.9849 134.339 95.2515 136.187 97.9896C138.022 100.77 139.632 103.693 141.016 106.759C141.354 108.115 141.693 109.47 142.032 110.826C142.435 111.398 142.837 111.97 143.239 112.542C143.345 112.629 143.43 112.608 143.493 112.478C143.941 111.729 144.089 110.924 143.938 110.064C143.12 106.86 141.849 103.852 140.126 101.04C138.843 99.0241 137.466 97.0754 135.996 95.1935C136.038 95.1512 136.081 95.1088 136.123 95.0664C136.695 95.4585 137.288 95.8186 137.902 96.1467C138.988 97.1058 140.11 98.0165 141.27 98.8793C142.583 101.125 143.896 103.37 145.209 105.615C145.345 107.515 145.684 109.379 146.226 111.207C146.398 112.473 146.271 113.702 145.844 114.893C145.76 115.105 145.76 115.317 145.844 115.529C146.819 117.393 147.793 119.257 148.767 121.121C150.147 124.542 151.503 127.974 152.833 131.415C153.279 132.328 153.872 133.132 154.612 133.83C155.076 135.932 155.457 138.05 155.756 140.185C156.128 141.607 156.573 143.005 157.09 144.379C156.047 144.378 155.051 144.124 154.104 143.616C153.886 141.761 153.504 139.938 152.96 138.151C151.852 135.045 150.708 131.952 149.529 128.873C147.974 125.888 146.322 122.965 144.574 120.104C144.188 119.153 144.04 118.178 144.129 117.181C143.55 116.24 142.893 115.351 142.159 114.512C141.474 113.529 140.838 112.512 140.253 111.462C138.651 108.13 137.084 104.783 135.551 101.421C134.971 100.312 134.188 99.38 133.201 98.6251C133.055 98.707 132.928 98.8129 132.819 98.9428C133.136 100.999 133.835 102.926 134.916 104.726C135.562 105.551 136.113 106.441 136.568 107.395C137.136 109.141 137.729 110.878 138.347 112.605C140.931 117.52 143.515 122.434 146.098 127.348C147.861 130.518 149.174 133.866 150.038 137.389C150.754 140.658 151.58 143.899 152.516 147.111C152.22 147.855 151.669 148.3 150.864 148.446C150.234 146.565 149.663 144.659 149.148 142.727C147.023 136.687 144.947 130.63 142.922 124.552C142.715 124.218 142.461 123.922 142.159 123.663C141.613 125.47 141.571 127.291 142.032 129.128C142.792 132.802 143.808 136.403 145.082 139.931C145.595 142.678 146.379 145.347 147.433 147.938C147.369 147.98 147.306 148.023 147.242 148.065C146.272 147.798 145.319 147.48 144.383 147.111C143.798 144.592 143.056 142.114 142.159 139.676C141.959 138.15 141.748 136.625 141.524 135.101C140.922 133.209 140.371 131.302 139.872 129.382C139.751 128.731 139.687 128.074 139.681 127.412C140.125 124.29 139.68 121.304 138.347 118.452C135.02 111.646 132.266 104.613 130.087 97.3541C127.771 92.7493 124.531 88.9152 120.366 85.8521C119.153 85.203 117.882 84.6947 116.554 84.327C108.178 81.7606 99.8335 79.0916 91.5203 76.32C91.0079 76.1068 90.542 75.8315 90.1225 75.4939C90.6847 74.7856 91.4048 74.362 92.2827 74.223Z" fill="#81D600"/>
<path fill-rule="evenodd" clip-rule="evenodd" d="M80.2107 76.892C81.9945 76.8115 83.71 77.108 85.3572 77.7816C86.7386 77.2443 88.1575 77.1383 89.6142 77.4639C97.3158 79.8197 105.025 82.1497 112.742 84.4541C115.215 85.1938 117.629 86.0834 119.985 87.123C125.19 90.5143 128.43 95.2803 129.706 101.421C129.944 102.569 130.198 103.713 130.468 104.853C132.521 109.357 134.3 113.974 135.806 118.706C135.99 119.565 136.074 120.413 136.06 121.248C136.458 122.103 136.754 122.992 136.949 123.917C137.222 127.578 137.646 131.222 138.22 134.847C138.519 136.213 138.858 137.568 139.237 138.914C139.83 140.525 140.423 142.134 141.016 143.743C141.52 145.755 141.859 147.789 142.032 149.844C141.491 150.556 140.792 150.81 139.935 150.607C139.374 147.556 138.633 144.548 137.712 141.583C137.088 137.938 136.453 134.294 135.806 130.653C134.968 127.896 134.29 125.1 133.772 122.265C133.287 120.257 132.483 118.393 131.358 116.672C131.003 114.829 130.453 113.049 129.706 111.334C128.516 108.96 127.33 106.587 126.148 104.217C123.522 101.082 120.896 97.9473 118.269 94.8122C115.488 92.7506 112.671 90.7382 109.819 88.7753C107.687 87.5398 105.485 86.4383 103.211 85.4708C100.872 84.7334 98.5424 83.9709 96.222 83.1831C93.6883 82.4617 91.1044 82.1651 88.4705 82.2935C87.0265 82.1093 85.5863 81.8974 84.15 81.658C83.5994 81.5732 83.0487 81.5732 82.4981 81.658C76.3867 82.8296 70.3295 84.2276 64.3265 85.8521C62.1359 86.5876 60.0603 87.562 58.0999 88.7753C56.1743 90.1833 54.1836 91.4966 52.1274 92.7152C50.7601 94.5067 49.214 96.1377 47.4892 97.6083C47.4835 96.2698 47.886 95.0624 48.6964 93.9861C48.2912 93.7899 48.143 93.4722 48.2517 93.0329C52.1 89.1899 56.6111 86.3726 61.785 84.5812C65.8292 83.2753 69.8955 82.0467 73.9841 80.8954C75.5889 80.684 77.1984 80.5145 78.8129 80.3871C79.3278 80.3074 79.7937 80.1167 80.2107 79.8151C79.8683 79.5116 79.4658 79.3845 79.0035 79.4339C72.6303 79.4886 66.4672 80.6537 60.5143 82.9289C56.3568 84.8595 52.3328 87.0201 48.4423 89.4107C46.8714 90.5355 45.3465 91.7217 43.8676 92.9694C42.3898 92.7655 41.1402 92.1088 40.119 90.9994C40.0983 90.7596 40.2042 90.569 40.4366 90.4275C41.0297 90.0462 41.6227 89.6649 42.2157 89.2837C43.6954 88.7903 45.1356 88.1971 46.5362 87.5043C48.8794 85.7387 51.4209 84.2983 54.1606 83.1831C59.1359 81.0726 64.2613 79.4204 69.5365 78.2265C70.4998 77.8504 71.474 77.5116 72.4592 77.2097C74.4778 77.0953 76.4898 77.1589 78.4952 77.4003C79.0855 77.2383 79.6573 77.0689 80.2107 76.892ZM111.979 86.9324C112.682 86.9597 113.359 87.1081 114.012 87.3772C115.991 88.1973 117.94 89.0869 119.858 90.0462C123.806 92.5337 126.22 96.0711 127.101 100.659C126.967 100.678 126.84 100.656 126.72 100.595C124.133 97.8804 121.506 95.2114 118.841 92.5881C116.613 91.0285 114.283 89.6305 111.852 88.394C111.574 88.0496 111.362 87.6683 111.217 87.2501C111.499 87.1782 111.753 87.0722 111.979 86.9324Z" fill="#81D600"/>
<path fill-rule="evenodd" clip-rule="evenodd" d="M83.0064 83.2467C86.4886 83.3481 89.9619 83.5812 93.4264 83.9457C96.7327 84.7938 99.952 85.8953 103.084 87.2501C106.324 89.3154 109.586 91.3489 112.869 93.3507C116.278 96.9305 119.688 100.51 123.098 104.09C124.66 106.875 126.015 109.756 127.164 112.733C129.024 115.224 130.38 117.978 131.231 120.994C131.82 123.049 132.328 125.125 132.756 127.221C133.703 132.48 134.677 137.733 135.678 142.981C136.3 145.341 136.977 147.672 137.712 149.971C136.824 149.618 135.956 149.216 135.107 148.764C134.954 148.649 134.848 148.501 134.789 148.319C134.062 146.218 133.681 144.057 133.645 141.837C132.011 134.832 130.316 127.841 128.562 120.867C128.383 120.201 128.129 119.565 127.8 118.96C126.771 117.847 125.839 116.661 125.004 115.402C124.837 114.225 124.54 113.082 124.115 111.97C123.403 110.624 122.641 109.31 121.827 108.03C121.439 107.289 121.1 106.526 120.811 105.742C119.853 104.827 118.858 103.958 117.825 103.137C115.778 100.91 113.703 98.7067 111.598 96.528C109.228 94.6257 106.686 92.9734 103.974 91.5713C101.625 90.7194 99.2111 90.1263 96.7303 89.792C94.2416 89.3978 91.7424 89.1436 89.233 89.0295C88.8895 89.4132 88.466 89.6674 87.9622 89.792C86.4569 89.8824 84.9533 89.8612 83.4511 89.7285C81.1225 89.67 78.9411 90.1995 76.9068 91.3172C73.8347 91.5082 71.0391 92.4826 68.5199 94.2403C67.5236 94.8868 66.5493 95.5646 65.5972 96.2738C64.0724 96.9516 62.5475 97.6295 61.0226 98.3073C60.006 99.0276 58.9894 99.7477 57.9728 100.468C56.8682 100.807 55.7668 100.85 54.6689 100.595C57.2662 98.3813 60.1041 96.5172 63.1828 95.0029C64.4959 94.1132 65.8091 93.2236 67.1221 92.3339C69.522 91.1128 72.0212 90.1385 74.6195 89.4107C75.6903 88.8328 76.7917 88.3245 77.9234 87.8856C78.8175 87.6388 79.7282 87.4905 80.6555 87.4408C85.6716 87.6903 90.691 87.8386 95.7137 87.8856C96.6304 87.9546 97.52 88.1453 98.3823 88.4575C98.6678 88.3465 98.9643 88.304 99.2718 88.3304C99.3051 88.1426 99.2628 87.9732 99.1447 87.8221C98.8264 87.5993 98.4876 87.4086 98.1281 87.2501C96.651 86.849 95.1685 86.4678 93.6806 86.1063C89.7822 86.0781 85.8852 85.9933 81.9898 85.8521C80.9143 85.6693 79.8342 85.521 78.7494 85.4073C78.3419 85.4379 77.9394 85.5015 77.5422 85.5979C73.9751 87.2814 70.3746 88.8913 66.7409 90.4275C66.0853 90.734 65.45 91.073 64.8348 91.4443C64.103 92.1766 63.2982 92.812 62.4204 93.3507C61.122 93.9364 59.8088 94.4873 58.4811 95.0029C56.2123 96.9216 53.9675 98.8705 51.7462 100.849C50.9338 100.834 50.1291 100.707 49.3318 100.468C48.8005 100.276 48.3345 99.9791 47.934 99.5783C50.8704 96.9038 53.8777 94.3195 56.9562 91.8255C59.6447 90.2477 62.398 88.7649 65.216 87.3772C66.2048 86.9253 67.2214 86.544 68.2658 86.2334C73.1875 85.1939 78.1011 84.1982 83.0064 83.2467Z" fill="#81D600"/>
<path fill-rule="evenodd" clip-rule="evenodd" d="M84.4042 91.2536C92.4497 90.1145 99.82 91.7878 106.515 96.2738C108.631 97.7247 110.558 99.3981 112.297 101.294C113.229 102.565 114.161 103.836 115.092 105.107C117.573 107.038 119.436 109.452 120.684 112.351C121.36 113.936 121.974 115.546 122.526 117.181C124.754 118.71 126.342 120.744 127.292 123.281C127.819 124.778 128.242 126.303 128.562 127.857C129.48 132.844 130.327 137.843 131.104 142.854C131.429 144.664 131.874 146.443 132.438 148.192C132.248 148.705 131.909 148.959 131.421 148.954C130.748 148.217 130.261 147.369 129.96 146.412C129.338 142.961 128.618 139.529 127.8 136.118C127.409 134.255 127.155 132.391 127.037 130.526C126.349 128.28 125.544 126.077 124.623 123.917C124.207 123.379 123.762 122.871 123.289 122.392C123.13 122.46 122.982 122.545 122.844 122.646C122.759 123.154 122.759 123.663 122.844 124.171C123.631 126.211 124.309 128.288 124.877 130.399C125.257 132.078 125.384 133.772 125.258 135.482C126.453 139.066 127.597 142.667 128.689 146.285C129.099 147.317 129.544 148.334 130.024 149.336C129.068 149.334 128.157 149.08 127.292 148.573C126.636 147.303 126.085 145.991 125.64 144.633C123.958 138.923 122.476 133.162 121.192 127.348C120.798 125.153 120.459 122.95 120.175 120.739C119.646 120.019 119.18 119.257 118.778 118.452C117.956 116.027 117.108 113.613 116.236 111.207C115.515 109.849 114.668 108.578 113.695 107.395C110.79 104.531 107.93 101.629 105.117 98.6886C104.179 98.2526 103.204 97.9136 102.194 97.6719C100.839 96.9093 99.4836 96.1467 98.1281 95.3842C95.9359 94.4397 93.6485 94.0161 91.2661 94.1132C85.8509 94.6812 80.4715 95.4861 75.1278 96.528C73.5704 96.841 72.1301 97.4341 70.8073 98.3073C66.8236 100.766 63.0537 103.52 59.4977 106.568C59.0345 106.601 58.6745 106.411 58.4176 105.997C57.9474 105.349 57.7356 104.628 57.7822 103.836C58.2304 103.109 58.6116 102.346 58.9259 101.548C59.1588 101.146 59.4765 100.828 59.8789 100.595C62.3633 99.5009 64.8625 98.4418 67.3763 97.4177C68.1856 96.8428 68.9481 96.2074 69.6636 95.5113C71.1915 94.4651 72.8859 93.872 74.7466 93.7319C75.4579 93.4709 76.1568 93.1955 76.8433 92.9058C77.8341 93.204 78.8296 93.2252 79.8295 92.9694C81.3808 92.4249 82.9057 91.853 84.4042 91.2536Z" fill="#81D600"/>
<path fill-rule="evenodd" clip-rule="evenodd" d="M89.7413 96.3374C91.0541 96.4113 92.3248 96.6868 93.5535 97.1635C96.1932 97.488 98.7347 98.1658 101.178 99.197C103.309 101.236 105.278 103.418 107.087 105.742C108.025 106.744 109.02 107.676 110.073 108.538C111.558 110.659 112.85 112.905 113.949 115.274C114.651 116.746 115.329 118.229 115.982 119.723C117.646 124.207 119.002 128.783 120.048 133.449C121.383 138.024 122.717 142.6 124.051 147.175C123.794 147.837 123.371 148.366 122.78 148.764C122.214 149.057 121.643 149.333 121.065 149.59C120.011 147.525 119.206 145.364 118.651 143.108C117.81 139.108 116.751 135.168 115.474 131.288C114.674 129.349 113.742 127.486 112.678 125.696C112.501 124.13 112.332 122.562 112.17 120.994C112.079 120.6 111.952 120.219 111.789 119.85C111.344 119.32 111.005 118.727 110.772 118.07C110.221 116.374 109.882 114.638 109.755 112.86C108.654 111.419 107.553 109.979 106.451 108.538C105.723 107.93 104.939 107.401 104.101 106.95C102.962 105.514 101.691 104.2 100.288 103.01C99.5043 102.512 98.6996 102.046 97.874 101.612C95.83 100.775 93.7333 100.118 91.5838 99.6418C89.7973 100.005 87.9971 100.28 86.1832 100.468C85.4358 100.647 84.7156 100.901 84.0229 101.23C80.6076 102.96 77.1766 104.654 73.73 106.314C72.1155 107.589 70.5483 108.923 69.0282 110.318C68.0768 109.815 67.505 109.052 67.3127 108.03C69.1418 106.455 71.1115 105.078 73.2217 103.899C75.4362 102.792 77.6812 101.754 79.9566 100.786C80.1003 100.586 80.1215 100.374 80.0201 100.15C79.685 99.9297 79.325 99.7603 78.94 99.6418C76.0988 100.83 73.3031 102.122 70.5531 103.518C69.1524 104.305 67.8393 105.216 66.6138 106.251C66.5259 106.184 66.4624 106.099 66.4232 105.997C64.9511 107.048 63.3202 107.429 61.5309 107.14C62.9757 105.717 64.5854 104.51 66.3597 103.518C68.6906 101.589 71.2321 99.9793 73.9841 98.6886C75.8672 97.973 77.8156 97.5493 79.8295 97.4177C81.739 97.3827 83.6452 97.4252 85.5478 97.5448C86.4208 97.3199 87.2679 97.0234 88.0893 96.6551C88.6567 96.544 89.2073 96.4382 89.7413 96.3374Z" fill="#81D600"/>
<path fill-rule="evenodd" clip-rule="evenodd" d="M145.145 101.294C146.12 101.361 147.073 101.531 148.005 101.802C148.851 104.512 149.698 107.224 150.546 109.936C152.09 113.02 153.022 116.282 153.342 119.723C154.82 122.59 155.921 125.598 156.646 128.746C158.59 134.172 160.347 139.659 161.919 145.205C161.449 145.715 160.857 145.991 160.14 146.031C157.956 138.353 155.478 130.771 152.706 123.281C151.321 120.395 150.135 117.43 149.148 114.385C148.949 113.049 148.652 111.736 148.259 110.445C147.574 108.524 146.854 106.618 146.098 104.726C145.681 103.607 145.364 102.464 145.145 101.294Z" fill="#81D600"/>
<path fill-rule="evenodd" clip-rule="evenodd" d="M155.311 102.057C156.397 102.286 157.477 102.541 158.552 102.819C159.214 105.059 159.976 107.262 160.839 109.428C161.368 110.487 161.961 111.503 162.618 112.478C165.26 118.298 167.865 124.144 170.433 130.017C170.098 130.127 169.758 130.105 169.417 129.954C168.888 129.85 168.401 129.659 167.955 129.382C167.014 127.2 165.785 125.208 164.27 123.408C163.041 120.443 161.814 117.477 160.585 114.512C159.857 113.013 159.094 111.53 158.298 110.064C158.065 109.137 157.853 108.205 157.662 107.267C156.937 105.939 156.259 104.583 155.629 103.2C155.447 102.838 155.341 102.457 155.311 102.057Z" fill="#81D600"/>
<path fill-rule="evenodd" clip-rule="evenodd" d="M89.7413 102.311C90.9754 102.215 92.1614 102.405 93.2993 102.883C94.5201 103.638 95.7061 104.443 96.8574 105.298C98.5472 106.144 100.242 106.991 101.94 107.839C102.963 108.48 103.874 109.264 104.672 110.191C106.145 112.245 107.458 114.406 108.612 116.672C108.933 117.51 109.23 118.357 109.501 119.214C110.218 122.887 111.192 126.488 112.424 130.017C112.715 131.792 112.969 133.571 113.186 135.355C113.711 137.522 114.389 139.641 115.22 141.71C116.346 144.284 117.447 146.867 118.523 149.463C118.619 149.608 118.598 149.735 118.46 149.844C117.073 149.369 115.908 148.564 114.965 147.429C114.545 146.818 114.1 146.226 113.631 145.65C113.236 146.078 112.855 146.523 112.487 146.984C112.312 147.142 112.143 147.164 111.979 147.048C111.228 144.974 110.635 142.856 110.2 140.693C110.256 140.353 110.319 140.013 110.391 139.676C110.689 139.079 110.986 138.487 111.28 137.897C111.354 137.546 111.312 137.208 111.153 136.88C110.661 136.315 110.111 135.806 109.501 135.355C108.802 134.317 108.378 133.173 108.23 131.924C108.039 130.219 107.784 128.524 107.468 126.84C107.189 125.985 106.808 125.18 106.324 124.425C105.432 120.225 103.568 116.539 100.733 113.368C99.8111 110.709 97.9685 109.078 95.2054 108.475C93.1325 108.16 91.057 107.863 88.9788 107.585C88.1204 107.32 87.3157 106.939 86.5644 106.441C86.2583 106.323 85.9406 106.259 85.6114 106.251C83.6471 106.821 81.6774 107.393 79.7024 107.966C78.6756 108.357 77.8285 108.993 77.161 109.873C75.7811 110.472 74.3409 110.832 72.8405 110.953C72.343 110.951 71.877 110.845 71.4426 110.635C72.2586 109.819 73.1481 109.099 74.1112 108.475C78.9432 105.422 84.1532 103.367 89.7413 102.311Z" fill="#81D600"/>
<path fill-rule="evenodd" clip-rule="evenodd" d="M150.61 102.311C151.664 102.543 152.723 102.755 153.786 102.946C155.243 107.211 156.662 111.49 158.043 115.783C158.741 117.18 159.503 118.535 160.331 119.85C160.782 120.667 161.163 121.514 161.474 122.392C162.61 124.163 163.797 125.9 165.032 127.603C165.559 128.443 165.982 129.332 166.303 130.272C167.091 132.953 167.917 135.622 168.781 138.278C168.031 138.304 167.269 138.304 166.494 138.278C165.715 134.734 164.593 131.302 163.126 127.984C162.83 127.517 162.533 127.052 162.237 126.586C161.434 129.118 161.688 131.532 162.999 133.83C163.243 135.176 163.603 136.489 164.079 137.77C164.016 137.812 163.952 137.855 163.889 137.897C163.084 137.74 162.322 137.485 161.601 137.135C161.053 134.856 160.544 132.568 160.077 130.272C159.434 128.595 158.84 126.9 158.298 125.188C158.043 123.931 157.916 122.66 157.916 121.375C156.53 118.094 155.005 114.874 153.342 111.716C152.392 108.59 151.481 105.455 150.61 102.311Z" fill="#81D600"/>
<path fill-rule="evenodd" clip-rule="evenodd" d="M161.792 104.598C162.807 104.74 163.824 104.867 164.842 104.98C165.393 106.466 166.05 107.906 166.812 109.301C167.32 109.979 167.913 110.572 168.591 111.08C169.211 113.083 169.973 115.032 170.878 116.927C171.603 121.838 173.108 126.498 175.389 130.907C175.325 130.949 175.262 130.992 175.198 131.034C174.308 130.951 173.44 130.782 172.593 130.526C170.761 125.429 168.791 120.388 166.684 115.402C166.083 114.503 165.532 113.571 165.032 112.605C164.403 110.851 163.853 109.072 163.381 107.267C162.912 106.329 162.383 105.439 161.792 104.598Z" fill="#81D600"/>
<path fill-rule="evenodd" clip-rule="evenodd" d="M167.51 105.107C168.527 105.152 169.544 105.216 170.56 105.298C171.487 106.705 172.227 108.209 172.784 109.809C172.915 110.481 172.999 111.159 173.038 111.843C174.336 115.374 175.67 118.89 177.041 122.392C176.999 122.434 176.956 122.476 176.914 122.519C176.366 122.659 175.816 122.787 175.262 122.9C175.22 122.837 175.177 122.773 175.135 122.709C172.61 116.832 170.068 110.964 167.51 105.107Z" fill="#81D600"/>
<path fill-rule="evenodd" clip-rule="evenodd" d="M172.848 105.361C173.856 105.359 174.851 105.443 175.834 105.615C177.563 108.99 179.152 112.422 180.599 115.91C180.303 115.878 180.049 115.962 179.837 116.164C180.224 116.362 180.627 116.531 181.044 116.672C181.683 118.142 182.34 119.603 183.013 121.057C182.961 121.177 182.877 121.262 182.759 121.311C181.842 121.583 180.91 121.774 179.964 121.883C179.591 120.447 179.103 119.049 178.502 117.689C177.172 114.773 175.774 111.893 174.309 109.047C173.759 107.84 173.272 106.612 172.848 105.361Z" fill="#81D600"/>
<path fill-rule="evenodd" clip-rule="evenodd" d="M178.312 105.742C179.337 105.574 180.375 105.574 181.425 105.742C182.251 107.225 183.077 108.708 183.903 110.191C183.426 110.5 182.918 110.775 182.378 111.017C183.101 111.106 183.822 111.212 184.538 111.334C184.983 112.139 185.428 112.944 185.873 113.749C185.968 113.894 185.946 114.021 185.809 114.131C184.959 114.393 184.111 114.668 183.268 114.957C183.085 115.056 182.914 115.035 182.759 114.893C181.271 111.831 179.788 108.781 178.312 105.742Z" fill="#81D600"/>
<path fill-rule="evenodd" clip-rule="evenodd" d="M184.792 105.742C185.852 105.792 186.911 105.855 187.969 105.933C188.436 106.568 188.901 107.204 189.367 107.839C188.422 108.335 187.447 108.716 186.444 108.983C185.809 107.946 185.259 106.865 184.792 105.742Z" fill="#81D600"/>
<path fill-rule="evenodd" clip-rule="evenodd" d="M189.367 105.869C190.432 105.905 191.491 105.99 192.544 106.124C192.566 106.292 192.524 106.44 192.417 106.568C191.743 106.772 191.065 106.963 190.384 107.14C189.902 106.828 189.563 106.405 189.367 105.869Z" fill="#81D600"/>
<path fill-rule="evenodd" clip-rule="evenodd" d="M82.6251 109.682C85.982 109.682 89.3283 109.872 92.664 110.254C94.1135 110.475 95.2784 111.174 96.1585 112.351C98.408 114.728 100.611 117.143 102.766 119.596C104.076 124.58 105.346 129.579 106.579 134.593C106.776 136.513 107.073 138.42 107.468 140.312C108.147 143.449 108.824 146.584 109.501 149.717C109.94 152.671 109.919 155.615 109.438 158.55C109.332 158.638 109.247 158.616 109.184 158.486C108.883 158.08 108.608 157.656 108.358 157.215C107.306 153.593 106.332 149.951 105.435 146.285C104.599 138.843 102.905 131.598 100.352 124.552C99.6802 122.784 98.7484 121.174 97.5563 119.723C97.5348 118.915 97.4713 118.109 97.3657 117.308C95.1969 115.439 92.7401 114.062 89.9954 113.177C88.9895 112.957 87.9729 112.809 86.9456 112.733C86.2422 112.778 85.5645 112.926 84.9125 113.177C82.9051 115.482 80.8507 117.748 78.7494 119.977C77.8257 121.62 76.8514 123.23 75.8267 124.806C74.6407 126.332 73.4546 127.857 72.2686 129.382C72.2538 128.402 72.3385 127.427 72.5228 126.459C73.4546 124.764 74.3866 123.069 75.3184 121.375C77.3367 118.805 79.497 116.348 81.7992 114.003C82.834 112.581 82.474 111.966 80.719 112.161C80.1116 112.358 79.561 112.655 79.0671 113.05C77.8507 114.245 76.7071 115.41 75.6361 116.545C75.8142 115.392 76.0472 114.248 76.335 113.114C77.6962 112.345 78.9882 111.476 80.2107 110.508C80.9846 110.094 81.7895 109.818 82.6251 109.682Z" fill="#81D600"/>
<path fill-rule="evenodd" clip-rule="evenodd" d="M187.842 111.334C189.068 111.425 190.297 111.531 191.527 111.652C191.704 112.033 191.577 112.287 191.146 112.415C190.38 112.635 189.617 112.868 188.859 113.114C188.392 112.606 188.053 112.013 187.842 111.334Z" fill="#81D600"/>
<path fill-rule="evenodd" clip-rule="evenodd" d="M85.802 116.545C86.7975 116.708 87.7928 116.708 88.7882 116.545C89.9098 116.566 90.8205 117.011 91.5203 117.88C92.7938 118.476 93.8315 119.345 94.6336 120.485C94.7654 121.223 94.6595 121.922 94.3159 122.582C95.722 122.845 96.7174 123.628 97.3022 124.934C99.1276 131.351 100.695 137.832 102.004 144.379C102.63 146.597 103.308 148.801 104.037 150.988C104.484 153.69 105.077 156.359 105.816 158.995C107.129 162.511 108.442 166.027 109.755 169.544C111.107 171.023 112.505 172.463 113.949 173.865C115.766 175.891 116.571 178.264 116.363 180.982C115.298 180.037 114.176 179.168 112.996 178.377C111.27 176.567 109.639 174.681 108.103 172.721C107.214 170.391 106.324 168.06 105.435 165.731C104.399 163.489 103.297 161.285 102.131 159.122C101.288 156.05 100.525 152.957 99.8436 149.844C98.9963 145.522 98.1491 141.2 97.3022 136.88C95.8085 131.509 93.9871 126.256 91.838 121.121C89.9544 119.402 87.8152 118.999 85.4208 119.913C81.7723 121.401 79.8662 124.113 79.7024 128.047C79.9687 132.141 80.3076 136.23 80.719 140.312C80.7061 140.867 80.5578 141.376 80.2743 141.837C79.4817 140.688 79.0157 139.417 78.8765 138.024C78.9859 135.643 78.9436 133.27 78.7494 130.907C78.673 130.508 78.5459 130.127 78.3682 129.763C77.9446 129.17 77.4363 128.661 76.8433 128.238C76.5801 127.99 76.4953 127.693 76.5891 127.348C77.3725 125.06 78.5162 122.984 80.0201 121.121C81.6981 119.678 83.4559 118.344 85.2937 117.117C85.4895 116.943 85.659 116.752 85.802 116.545Z" fill="#81D600"/>
<path fill-rule="evenodd" clip-rule="evenodd" d="M184.03 117.562C185.49 117.759 186.93 118.161 188.351 118.769C188.586 118.984 188.798 119.216 188.986 119.469C188.043 119.884 187.068 120.159 186.063 120.295C185.402 119.36 184.725 118.45 184.03 117.562Z" fill="#81D600"/>
<path fill-rule="evenodd" clip-rule="evenodd" d="M86.5644 122.392C88.26 122.356 89.7213 122.907 90.9485 124.044C92.383 126.948 93.6961 129.913 94.8878 132.94C95.4051 135.942 96.0828 138.908 96.9209 141.837C97.354 144.014 97.7564 146.196 98.1281 148.382C98.1422 149.858 97.5916 151.065 96.4762 152.005C96.0385 151.628 95.7208 151.163 95.5231 150.607C95.257 147.934 94.9606 145.265 94.6336 142.6C94.1815 140.664 93.6309 138.758 92.9816 136.88C92.9635 135.397 92.7093 133.957 92.2192 132.559C91.2353 130.38 90.2187 128.219 89.1694 126.077C88.3052 125.358 87.3097 125.04 86.1832 125.124C85.8655 125.273 85.6326 125.505 85.4843 125.823C84.3129 128.248 83.7411 130.812 83.7688 133.512C83.8294 135.152 83.9777 136.783 84.2136 138.406C84.6795 141.033 85.1454 143.658 85.6114 146.285C86.0734 148.264 86.6876 150.192 87.4539 152.068C87.7504 152.217 88.047 152.364 88.3435 152.513C88.6071 152.186 88.7766 151.805 88.8517 151.369C87.72 149.861 87.0211 148.165 86.755 146.285C86.5687 144.549 86.3994 142.813 86.2467 141.075C85.8897 139.604 85.5932 138.121 85.3572 136.626C85.2725 135.906 85.2725 135.186 85.3572 134.466C85.4717 134.139 85.6411 133.843 85.8655 133.576C86.3377 134.654 86.7614 135.754 87.1363 136.88C88.3948 141.577 89.4114 146.321 90.186 151.115C90.2283 152.259 90.2708 153.403 90.3131 154.547C91.1179 156.792 91.9227 159.037 92.7275 161.283C93.3913 163.02 94.1538 164.714 95.0148 166.366C96.9109 169.777 98.7746 173.209 100.606 176.661C104.44 180.495 108.273 184.328 112.106 188.163C114.321 189.619 116.502 191.124 118.651 192.675C119.113 194.46 118.414 195.456 116.554 195.661C115.468 195.77 114.409 195.642 113.377 195.28C112.191 194.73 111.005 194.178 109.819 193.628C107.053 191.12 103.961 189.087 100.543 187.527C98.1553 186.114 96.228 184.229 94.7607 181.872C93.0315 180.314 91.5913 178.534 90.4402 176.534C89.8528 175.194 89.2175 173.881 88.5341 172.594C88.3361 172.357 88.1032 172.167 87.8352 172.022C87.0032 171.848 86.1984 171.594 85.4208 171.259C84.9643 170.888 84.6043 170.443 84.3406 169.925C82.4348 163.74 80.5287 157.556 78.6223 151.369C78.0875 149.535 77.8968 147.672 78.0505 145.777C77.9245 145.082 77.7339 144.403 77.4786 143.743C77.1809 143.663 76.9055 143.536 76.6527 143.362C76.9945 141.843 77.3122 140.318 77.6057 138.787C78.0248 140.379 78.406 141.988 78.7494 143.616C79.5139 143.871 80.1069 144.337 80.5284 145.014C81.4013 149.252 82.2908 153.489 83.197 157.724C83.6007 159.381 84.0243 161.033 84.4677 162.681C85.2737 164.95 86.142 167.196 87.0727 169.417C87.2349 169.561 87.4043 169.561 87.581 169.417C87.9519 169.015 88.1002 168.55 88.0258 168.018C87.4322 165.9 86.6273 163.866 85.6114 161.918C84.794 159.531 84.4552 157.073 84.5948 154.547C83.6807 152.076 83.0454 149.534 82.6887 146.921C82.3678 143.234 82.029 139.548 81.6721 135.864C81.5904 133.066 81.6327 130.27 81.7992 127.475C82.1166 124.553 83.705 122.859 86.5644 122.392ZM86.5644 154.674C87.4726 155.895 88.2563 157.208 88.9153 158.614C90.699 163.219 92.4993 167.815 94.3159 172.403C94.8958 172.518 95.3828 172.793 95.7773 173.229C96.219 173.987 96.5579 174.791 96.7939 175.644C99.0785 179.129 101.684 182.37 104.609 185.367C104.997 185.713 105.421 186.01 105.88 186.257C107.894 187.003 109.715 188.062 111.344 189.434C112.53 190.62 113.716 191.807 114.902 192.992C113.713 192.963 112.612 192.625 111.598 191.976C109.664 189.44 107.122 187.873 103.974 187.273C103.432 187.028 102.924 186.731 102.449 186.384C100.694 184.67 98.9785 182.913 97.3022 181.109C96.0557 178.721 94.6579 176.433 93.1087 174.246C92.312 172.907 91.8037 171.467 91.5838 169.925C90.8843 168.865 90.2489 167.763 89.6777 166.62C88.7295 163.801 87.84 160.963 87.0092 158.105C86.7474 157.454 86.4509 156.819 86.1197 156.199C85.9963 155.587 86.1444 155.079 86.5644 154.674Z" fill="#81D600"/>
<path fill-rule="evenodd" clip-rule="evenodd" d="M175.643 124.298C175.798 124.175 175.967 124.197 176.151 124.362C176.935 124.976 177.718 125.59 178.502 126.205C179.053 127.644 179.604 129.086 180.154 130.526C180.241 130.688 180.22 130.837 180.091 130.971C179.41 131.076 178.731 131.054 178.058 130.907C177.299 128.671 176.495 126.469 175.643 124.298Z" fill="#81D600"/>
<path fill-rule="evenodd" clip-rule="evenodd" d="M180.345 127.348C181.53 128.197 182.674 129.107 183.776 130.081C183.031 130.311 182.269 130.502 181.489 130.653C181.157 129.529 180.776 128.429 180.345 127.348Z" fill="#81D600"/>
<path fill-rule="evenodd" clip-rule="evenodd" d="M86.5644 129.128C87.1005 129.062 87.5665 129.21 87.9622 129.572C89.6322 131.154 90.8394 133.038 91.5838 135.228C92.1569 137.817 92.75 140.402 93.3629 142.981C93.5939 147.664 94.0599 152.324 94.7607 156.961C95.7444 159.785 96.8033 162.581 97.9375 165.35C98.39 166.246 98.9619 167.051 99.653 167.764C99.8354 167.583 99.9624 167.37 100.034 167.129C98.9124 163.446 97.5782 159.844 96.0314 156.326C95.9578 156.053 95.8943 155.777 95.8408 155.5C95.9477 154.838 96.0748 154.18 96.222 153.53C96.5152 153.467 96.7904 153.467 97.048 153.53C98.1041 155.3 98.7819 157.207 99.0812 159.249C99.9968 162.039 101.183 164.708 102.639 167.256C104.418 170.306 106.197 173.356 107.976 176.407C110.123 178.252 112.304 180.053 114.521 181.808C115.912 183.342 117.289 184.889 118.651 186.447C119.009 187.352 119.263 188.284 119.413 189.243C119.512 189.855 119.449 190.447 119.222 191.023C118.388 190.251 117.498 189.552 116.554 188.925C115.556 188.448 114.581 187.939 113.631 187.4C112.742 186.426 111.852 185.452 110.963 184.477C111.163 184.185 111.418 184.016 111.725 183.969C112.766 184.861 113.824 185.73 114.902 186.574C115.098 186.484 115.225 186.335 115.283 186.129C115.206 185.801 115.1 185.484 114.965 185.176C114.185 184.353 113.359 183.57 112.487 182.825C111.813 182.561 111.178 182.646 110.581 183.079C110.071 183.144 109.605 183.017 109.184 182.698C107.86 181.381 106.61 180.005 105.435 178.567C105.087 176.633 104.367 174.854 103.275 173.229C101.517 170.793 99.4201 168.696 96.9845 166.938C96.4442 166.483 95.9994 165.953 95.6502 165.35C94.4289 162.186 93.2428 159.009 92.0921 155.817C92.0489 152.505 91.6254 149.243 90.8214 146.031C90.2541 144.032 89.6611 142.042 89.0424 140.058C88.6324 137.98 88.2089 135.903 87.7716 133.83C87.4752 132.982 87.1786 132.136 86.8821 131.288C86.6765 130.808 86.3588 130.427 85.9291 130.144C86.0786 129.759 86.2905 129.42 86.5644 129.128Z" fill="#81D600"/>
<path fill-rule="evenodd" clip-rule="evenodd" d="M168.654 131.034C170.358 133.187 172.053 135.368 173.737 137.579C172.801 137.982 171.826 138.131 170.814 138.024C170.17 135.668 169.45 133.338 168.654 131.034Z" fill="#81D600"/>
<path fill-rule="evenodd" clip-rule="evenodd" d="M75.8902 146.794C76.0619 147.671 76.2525 148.56 76.4621 149.463C77.0551 150.903 77.648 152.344 78.2411 153.784C78.6479 155.251 78.9868 156.734 79.2577 158.232C80.1891 161.027 81.121 163.823 82.0533 166.62C82.1381 166.917 82.1381 167.214 82.0533 167.51C81.6092 168.341 81.6516 169.147 82.1804 169.925C84.713 171.864 86.7884 174.194 88.407 176.915C89.5 178.896 90.6436 180.846 91.838 182.761C93.1604 184.084 94.5582 185.313 96.0314 186.447C96.3135 187.286 96.8006 187.985 97.4928 188.544C100.941 190.97 104.583 193.089 108.421 194.899C109.777 195.407 111.132 195.916 112.487 196.424C112.989 197.708 113.412 199.022 113.758 200.364C113.716 200.427 113.673 200.491 113.631 200.555C107.963 198.08 102.456 195.306 97.1115 192.23C94.6577 190.695 92.561 188.768 90.8214 186.447C87.3135 180.779 83.7555 175.145 80.1472 169.544C78.6473 164.938 77.186 160.32 75.7631 155.69C75.9001 155.248 76.0272 154.803 76.1444 154.356C75.4092 151.855 75.3245 149.334 75.8902 146.794Z" fill="#81D600"/>
<path fill-rule="evenodd" clip-rule="evenodd" d="M75.0007 158.741C75.2727 159.02 75.4633 159.36 75.5725 159.757C76.3017 161.945 76.9794 164.148 77.6057 166.366C78.6057 169.594 80.0459 172.603 81.9262 175.39C83.0634 176.994 84.2495 178.561 85.4843 180.092C86.2119 181.859 86.7625 183.68 87.1363 185.557C87.3133 186.039 87.525 186.504 87.7716 186.956C89.3085 188.831 90.9392 190.632 92.664 192.357C93.2993 192.823 93.9347 193.289 94.5701 193.755C96.8929 194.832 99.1802 195.975 101.432 197.187C102.269 197.438 103.116 197.65 103.974 197.822C107.352 199.195 110.74 200.529 114.139 201.826C114.321 202.838 114.427 203.855 114.457 204.876C109.447 203.038 104.47 201.11 99.5259 199.093C95.6948 197.602 92.1367 195.653 88.8518 193.247C87.8303 192.183 86.8561 191.081 85.9291 189.942C84.3437 189.457 82.967 188.631 81.7992 187.464C80.7826 186.278 79.766 185.091 78.7494 183.905C78.5187 183.664 78.2646 183.452 77.9869 183.27C78.0448 182.447 78.1507 181.621 78.3046 180.791C78.0365 180.409 77.6977 180.366 77.288 180.664C77.0277 180.994 76.7524 181.311 76.4621 181.618C75.9439 181.048 75.5203 180.413 75.1913 179.711C74.7041 177.89 73.9417 176.194 72.904 174.627C72.8466 172.281 73.0159 169.952 73.4123 167.637C73.6987 168.083 73.9529 168.548 74.1747 169.035C74.375 169.983 74.6291 170.915 74.9372 171.831C77.3016 175.509 79.716 179.152 82.1804 182.761C82.4871 184.053 83.1225 185.155 84.0865 186.066C84.4035 184.805 84.3189 183.576 83.8323 182.38C82.5528 180.795 81.3669 179.143 80.2743 177.423C78.6324 174.435 77.0227 171.428 75.4455 168.4C74.9066 166.868 74.4195 165.322 73.9841 163.761C74.2502 162.07 74.589 160.397 75.0007 158.741Z" fill="#81D600"/>
<path fill-rule="evenodd" clip-rule="evenodd" d="M77.7963 185.685C79.2079 186.863 80.5209 188.155 81.7356 189.561C82.6845 190.438 83.7435 191.159 84.9125 191.722C86.2748 193.084 87.6302 194.44 88.9788 195.789C91.7589 197.963 94.851 199.572 98.2552 200.618C103.605 202.677 108.984 204.647 114.394 206.528C113.979 208.793 112.623 209.704 110.327 209.261C109.911 209.137 109.529 208.947 109.184 208.689C109.95 208.681 110.67 208.447 111.344 207.99C111 207.603 110.619 207.265 110.2 206.973C102.502 204.923 95.0892 202.127 87.9622 198.585C87.2205 198.15 86.5004 197.685 85.802 197.187C84.7381 196.157 83.7638 195.055 82.8793 193.882C81.125 192.654 79.4518 191.32 77.8599 189.879C77.6271 188.483 77.6058 187.085 77.7963 185.685Z" fill="#81D600"/>
<path fill-rule="evenodd" clip-rule="evenodd" d="M78.3046 193.31C80.019 194.43 81.6286 195.701 83.1334 197.123C81.4271 197.606 80.0928 197.098 79.1306 195.598C78.7413 194.875 78.466 194.112 78.3046 193.31Z" fill="#81D600"/>
<path fill-rule="evenodd" clip-rule="evenodd" d="M86.1832 199.538C88.3766 201.153 90.7487 202.488 93.2993 203.541C97.6198 204.897 101.94 206.252 106.261 207.608C106.712 208.348 107.05 209.131 107.277 209.96C100.219 208.368 93.4413 205.997 86.9456 202.842C86.6104 201.759 86.3563 200.658 86.1832 199.538Z" fill="#81D600"/>
<path fill-rule="evenodd" clip-rule="evenodd" d="M87.8352 205.384C90.6746 206.536 93.5126 207.701 96.3491 208.879C97.0278 209.147 97.6632 209.486 98.2552 209.896C99.549 209.9 100.82 210.069 102.067 210.404C103.48 210.878 104.878 211.387 106.261 211.93C106.815 211.997 107.365 211.977 107.913 211.866C107.939 212.72 107.876 213.568 107.722 214.408C107.279 214.55 106.835 214.53 106.388 214.344C102.407 212.735 98.3406 211.379 94.1889 210.277C92.3675 209.366 90.546 208.456 88.7247 207.545C88.3215 206.866 88.025 206.145 87.8352 205.384Z" fill="#81D600"/>
<path fill-rule="evenodd" clip-rule="evenodd" d="M93.5535 211.739C97.9825 213.442 102.472 214.967 107.023 216.314C106.627 217.027 106.119 217.642 105.498 218.157C104.628 218.08 103.781 217.867 102.957 217.522C100.044 216.31 97.1217 215.125 94.1889 213.963C94.0118 213.814 93.9059 213.624 93.8712 213.391C93.7568 212.841 93.6508 212.289 93.5535 211.739Z" fill="#81D600"/>
<path fill-rule="evenodd" clip-rule="evenodd" d="M100.924 220C100.288 220 99.653 220 99.0177 220C97.4042 219.298 96.1122 218.198 95.1419 216.696C95.0571 216.568 95.0571 216.441 95.1419 216.314C97.516 217.195 99.8669 218.127 102.194 219.11C101.852 219.535 101.428 219.831 100.924 220Z" fill="#81D600"/>
</g>
</svg>
