<svg width="44" height="44" viewBox="0 0 44 44" fill="none" xmlns="http://www.w3.org/2000/svg">
<rect width="44" height="44" rx="22" fill="#EBFFEE"/>
<g clip-path="url(#clip0_1595_911)">
<path d="M30.3332 21.2333V22C30.3321 23.797 29.7503 25.5456 28.6743 26.9849C27.5983 28.4241 26.0859 29.4771 24.3626 29.9866C22.6394 30.4961 20.7976 30.4349 19.1119 29.8122C17.4262 29.1894 15.987 28.0384 15.009 26.5309C14.0309 25.0234 13.5663 23.2401 13.6846 21.4469C13.8028 19.6538 14.4975 17.9469 15.6651 16.5809C16.8326 15.2148 18.4105 14.2628 20.1633 13.8668C21.9162 13.4708 23.7501 13.6519 25.3915 14.3833M30.3332 15.3333L21.9998 23.675L19.4998 21.175" stroke="#14AE5C" stroke-width="2" stroke-linecap="round" stroke-linejoin="round"/>
</g>
<defs>
<clipPath id="clip0_1595_911">
<rect width="20" height="20" fill="white" transform="translate(12 12)"/>
</clipPath>
</defs>
</svg>
