<svg width="48" height="48" viewBox="0 0 48 48" fill="none" xmlns="http://www.w3.org/2000/svg">
<g clip-path="url(#clip0_693_1908)">
<path d="M47.0195 16.5636L45.0962 13.207C44.5837 12.3125 43.4448 11.9993 42.5468 12.5068C42.2634 12.6669 41.9542 12.748 41.6272 12.748C40.5933 12.748 39.7522 11.9069 39.7522 10.873C39.7522 10.209 40.1097 9.58783 40.6855 9.25201C41.575 8.73301 41.8796 7.59367 41.3675 6.70014L39.6681 3.73417C38.6826 2.01461 37.0866 0.781609 35.1741 0.262515C33.2616 -0.256673 31.2613 0.000296086 29.5419 0.986077L3.73022 15.7851C1.43456 17.1012 0.00525 19.5645 0 22.2172V29.3425C0 30.3782 0.839437 31.2176 1.87509 31.2176C2.90906 31.2176 3.75019 32.0588 3.75019 33.0927C3.75019 34.1267 2.90906 34.9678 1.87509 34.9678C0.839437 34.9678 0 35.8074 0 36.8429V40.4994C0 44.635 3.36469 47.9997 7.50037 47.9997H37.6894C41.8251 47.9997 45.1897 44.635 45.1897 40.4994V36.8429C45.1897 35.8073 44.3503 34.9678 43.3147 34.9678C42.2807 34.9678 41.4396 34.1267 41.4396 33.0927C41.4396 32.0588 42.2807 31.2176 43.3147 31.2176C44.3503 31.2176 45.1897 30.3782 45.1897 29.3425V26.0695C48.0193 23.8302 48.8665 19.7873 47.0195 16.5636ZM44.0304 21.5003C42.7001 19.3981 40.3559 17.9982 37.6895 17.9982H33.0296C33.3523 17.4389 33.3788 16.7285 33.0345 16.1279C32.5195 15.2295 31.3736 14.9185 30.4752 15.4336C29.5768 15.9487 29.2658 17.0944 29.7809 17.9928C29.7819 17.9947 29.7833 17.9964 29.7844 17.9982H19.7823C18.7466 17.9982 17.9072 18.8377 17.9072 19.8733C17.9072 20.909 18.7466 21.7484 19.7823 21.7484H37.6895C39.7573 21.7484 41.4397 23.4308 41.4397 25.4986V27.7887C39.257 28.5626 37.6895 30.6481 37.6895 33.0927C37.6895 35.5374 39.257 37.6227 41.4397 38.3967V40.4994C41.4397 42.5672 39.7573 44.2495 37.6895 44.2495H7.50037C5.43253 44.2495 3.75019 42.5672 3.75019 40.4994V38.3967C5.93287 37.6228 7.50037 35.5374 7.50037 33.0927C7.50037 30.6481 5.93287 28.5627 3.75019 27.7887V25.4986C3.75019 23.4308 5.43253 21.7484 7.50037 21.7484H10.4068C11.4425 21.7484 12.2819 20.909 12.2819 19.8733C12.2819 18.8377 11.4425 17.9982 10.4068 17.9982H7.50037C7.46859 17.9982 7.43728 18.0003 7.40559 18.0007L31.4073 4.23939C32.2573 3.75208 33.2462 3.62486 34.1918 3.88164C35.1376 4.13842 35.9268 4.74808 36.4141 5.59858L37.3472 7.22701C36.4937 8.23164 36.0018 9.52229 36.0018 10.8729C36.0018 13.9747 38.5253 16.4981 41.6271 16.4981C41.9573 16.4981 42.2863 16.4688 42.6098 16.4113L43.7654 18.4279C44.3221 19.3996 44.3834 20.5212 44.0304 21.5003Z" fill="#62AA38"/>
<path d="M31.1266 28.3113C32.1621 28.3113 33.0017 27.4718 33.0017 26.4362C33.0017 25.4006 32.1621 24.5611 31.1266 24.5611C30.091 24.5611 29.2515 25.4006 29.2515 26.4362C29.2515 27.4718 30.091 28.3113 31.1266 28.3113Z" fill="#62AA38"/>
<path d="M31.1266 34.8741C32.1621 34.8741 33.0017 34.0346 33.0017 32.999C33.0017 31.9634 32.1621 31.1239 31.1266 31.1239C30.091 31.1239 29.2515 31.9634 29.2515 32.999C29.2515 34.0346 30.091 34.8741 31.1266 34.8741Z" fill="#62AA38"/>
<path d="M31.1266 41.437C32.1621 41.437 33.0017 40.5974 33.0017 39.5619C33.0017 38.5263 32.1621 37.6868 31.1266 37.6868C30.091 37.6868 29.2515 38.5263 29.2515 39.5619C29.2515 40.5974 30.091 41.437 31.1266 41.437Z" fill="#62AA38"/>
<path d="M28.1261 13.2165C29.1617 13.2165 30.0012 12.377 30.0012 11.3414C30.0012 10.3058 29.1617 9.46631 28.1261 9.46631C27.0905 9.46631 26.251 10.3058 26.251 11.3414C26.251 12.377 27.0905 13.2165 28.1261 13.2165Z" fill="#62AA38"/>
</g>
<defs>
<clipPath id="clip0_693_1908">
<rect width="48" height="48" fill="white"/>
</clipPath>
</defs>
</svg>
