<svg width="57" height="56" viewBox="0 0 57 56" fill="none" xmlns="http://www.w3.org/2000/svg">
<path d="M0.5 28C0.5 12.536 13.036 0 28.5 0C43.964 0 56.5 12.536 56.5 28C56.5 43.464 43.964 56 28.5 56C13.036 56 0.5 43.464 0.5 28Z" fill="#E8B931"/>
<path d="M4.5 28C4.5 14.7452 15.2452 4 28.5 4C41.7548 4 52.5 14.7452 52.5 28C52.5 41.2548 41.7548 52 28.5 52C15.2452 52 4.5 41.2548 4.5 28Z" fill="#62AA38"/>
<path d="M41.8337 18L23.5003 36.3333L15.167 28" stroke="#FDFEFC" stroke-width="3.5" stroke-linecap="round" stroke-linejoin="round"/>
</svg>
