<svg width="44" height="44" viewBox="0 0 44 44" fill="none" xmlns="http://www.w3.org/2000/svg">
<rect width="44" height="44" rx="22" fill="#FEE9E7"/>
<path fill-rule="evenodd" clip-rule="evenodd" d="M35.4302 13.6542C35.4302 13.6542 28.2449 15.7714 25.6719 17.6967C23.0989 19.6219 23.1469 20.6115 24.6643 21.8711C26.1817 23.1306 27.6452 24.4561 27.6452 24.4561C27.6452 24.4561 29.7923 25.8715 31.0699 25.9615C32.3474 26.0514 32.7492 26.6572 31.8556 26.8551C30.9679 27.0531 30.2122 26.9031 29.9903 28.0607C29.7684 29.2182 29.8703 30.0819 28.9587 29.1343C28.047 28.1866 26.2777 26.2914 23.8726 25.3497C21.4675 24.4141 18.1988 24.0482 18.1988 24.0482C18.1988 24.0482 16.1776 25.2298 14.3603 28.6065C12.543 31.9832 11.8472 33.0687 11.8472 33.0687C11.8472 33.0687 9.70007 28.4625 11.0136 25.5716C12.3271 22.6867 14.2583 20.2937 14.2583 20.2937L12.2791 18.5004C12.2791 18.5004 13.1967 17.6187 14.5222 17.4628C15.8477 17.3068 17.683 18.0805 17.683 18.0805C17.683 18.0805 20.1421 12.5027 35.4182 13.6482L35.4302 13.6542Z" fill="#900B09"/>
</svg>
