<svg width="48" height="48" viewBox="0 0 48 48" fill="none" xmlns="http://www.w3.org/2000/svg">
<path d="M19.3515 20.0783L18.1037 19.6253L17.2873 18.5787C16.6531 17.7656 15.6979 17.2993 14.6668 17.2993C14.6667 17.2993 14.6667 17.2993 14.6666 17.2993C13.6354 17.2993 12.6802 17.7656 12.0459 18.5787L11.2295 19.6253L9.9819 20.0783C9.01261 20.4303 8.27396 21.1946 7.9553 22.1753C7.63665 23.1561 7.78486 24.2086 8.36218 25.0632L9.10524 26.1631L9.15061 27.4897C9.18586 28.5203 9.68452 29.459 10.5188 30.0651C11.3531 30.6712 12.3999 30.8553 13.391 30.5704L14.6666 30.2035L15.9422 30.5704C16.2481 30.6583 16.559 30.7015 16.8675 30.7015C17.5589 30.7015 18.2375 30.4841 18.8145 30.0651C19.6486 29.459 20.1474 28.5203 20.1826 27.4896L20.2279 26.163L20.971 25.0632C21.5483 24.2088 21.6966 23.1562 21.3781 22.1754C21.0594 21.1947 20.3206 20.4303 19.3515 20.0783ZM16.8188 24.5106C16.6216 24.8025 16.5106 25.1441 16.4986 25.4963L16.4536 26.8155L15.1848 26.4506C14.8463 26.3533 14.4871 26.3533 14.1484 26.4506L12.8798 26.8155L12.8347 25.4962C12.8226 25.144 12.7117 24.8025 12.5145 24.5106L11.7754 23.4167L13.0164 22.966C13.3475 22.8458 13.6381 22.6346 13.8547 22.3568L14.6666 21.316L15.4786 22.3569C15.6953 22.6347 15.9858 22.8458 16.3169 22.966L17.5577 23.4167L16.8188 24.5106Z" fill="#62AA38"/>
<path d="M36.458 18.2473H26.9792C25.9437 18.2473 25.1042 19.0868 25.1042 20.1223C25.1042 21.1579 25.9437 21.9973 26.9792 21.9973H36.4579C37.4935 21.9973 38.3329 21.1579 38.3329 20.1223C38.3329 19.0868 37.4936 18.2473 36.458 18.2473Z" fill="#62AA38"/>
<path d="M36.458 26.0027H26.9792C25.9437 26.0027 25.1042 26.8421 25.1042 27.8777C25.1042 28.9132 25.9437 29.7527 26.9792 29.7527H36.4579C37.4935 29.7527 38.3329 28.9132 38.3329 27.8777C38.3329 26.8421 37.4936 26.0027 36.458 26.0027Z" fill="#62AA38"/>
<path d="M47.026 19.5753C46.3059 19.1808 45.8588 18.4221 45.8588 17.5954C45.8588 16.7688 46.306 16.0101 47.026 15.6155C47.6266 15.2863 48 14.656 48 13.9712C48 10.9003 45.5017 8.40198 42.4308 8.40198H5.56922C2.49834 8.40207 0 10.9004 0 13.9713C0 14.6561 0.373312 15.2864 0.973969 15.6156C1.69397 16.0102 2.14125 16.7688 2.14125 17.5955C2.14125 18.4222 1.69397 19.1808 0.973969 19.5754C0.373312 19.9044 0 20.5347 0 21.2196V26.7804C0 27.4652 0.373312 28.0956 0.973969 28.4246C1.69406 28.8191 2.14125 29.5779 2.14125 30.4045C2.14125 31.2311 1.69397 31.9899 0.973969 32.3844C0.373312 32.7136 0 33.3439 0 34.0287C0 37.0996 2.49834 39.5979 5.56922 39.5979H42.4307C45.4672 39.5979 47.9653 37.1281 47.9995 34.0923C48.0112 33.0568 47.1812 32.2079 46.1458 32.1962C45.1093 32.1888 44.2614 33.0144 44.2497 34.0499C44.2386 35.0413 43.4226 35.8479 42.4307 35.8479H5.56922C4.85728 35.8479 4.23947 35.4367 3.94087 34.8395C5.16778 33.7167 5.89125 32.1144 5.89125 30.4044C5.89125 28.6075 5.09241 26.9296 3.75 25.8021V22.1977C5.09241 21.0701 5.89125 19.3923 5.89125 17.5953C5.89125 15.8853 5.16778 14.283 3.94087 13.1603C4.23956 12.563 4.85728 12.1519 5.56922 12.1519H42.4307C43.1426 12.1519 43.7604 12.5631 44.059 13.1603C42.8321 14.283 42.1087 15.8853 42.1087 17.5953C42.1087 19.3922 42.9075 21.0701 44.2499 22.1977V24.696C44.2499 25.7316 45.0893 26.571 46.1249 26.571C47.1605 26.571 47.9999 25.7316 47.9999 24.696V21.2195C48 20.5347 47.6267 19.9044 47.026 19.5753Z" fill="#62AA38"/>
</svg>
