<svg width="65" height="64" viewBox="0 0 65 64" fill="none" xmlns="http://www.w3.org/2000/svg">
<path d="M0.5 32C0.5 14.3269 14.8269 0 32.5 0C50.1731 0 64.5 14.3269 64.5 32C64.5 49.6731 50.1731 64 32.5 64C14.8269 64 0.5 49.6731 0.5 32Z" fill="#E8B931"/>
<path d="M4.5 32C4.5 16.536 17.036 4 32.5 4C47.964 4 60.5 16.536 60.5 32C60.5 47.464 47.964 60 32.5 60C17.036 60 4.5 47.464 4.5 32Z" fill="#62AA38"/>
<g clip-path="url(#clip0_182_6822)">
<path d="M48.3333 48.6668H16.6667C14.37 48.6668 12.5 46.7968 12.5 44.5002V41.1668C12.5 40.7068 12.8733 40.3335 13.3333 40.3335H14.1667C16.005 40.3335 17.5 38.8385 17.5 37.0002C17.5 35.1618 16.005 33.6668 14.1667 33.6668H13.3333C12.8733 33.6668 12.5 33.2935 12.5 32.8335V29.5002C12.5 27.2035 14.37 25.3335 16.6667 25.3335H48.3333C50.63 25.3335 52.5 27.2035 52.5 29.5002V32.8335C52.5 33.2935 52.1267 33.6668 51.6667 33.6668H50.8333C48.995 33.6668 47.5 35.1618 47.5 37.0002C47.5 37.8902 47.8467 38.7268 48.4767 39.3568C49.105 39.9868 49.9417 40.3335 50.8317 40.3335H51.665C52.125 40.3335 52.4983 40.7068 52.4983 41.1668V44.5002C52.5 46.7968 50.63 48.6668 48.3333 48.6668ZM14.1667 42.0002V44.5002C14.1667 45.8785 15.2883 47.0002 16.6667 47.0002H48.3333C49.7117 47.0002 50.8333 45.8785 50.8333 44.5002V42.0002C49.4983 42.0002 48.2417 41.4802 47.2983 40.5368C46.3533 39.5918 45.8333 38.3352 45.8333 37.0002C45.8333 34.2435 48.0767 32.0002 50.8333 32.0002V29.5002C50.8333 28.1218 49.7117 27.0002 48.3333 27.0002H16.6667C15.2883 27.0002 14.1667 28.1218 14.1667 29.5002V32.0002C16.9233 32.0002 19.1667 34.2435 19.1667 37.0002C19.1667 39.7568 16.9233 42.0002 14.1667 42.0002Z" fill="white"/>
<path d="M26.6668 28.6668C26.2068 28.6668 25.8335 28.2935 25.8335 27.8335V26.1668C25.8335 25.7068 26.2068 25.3335 26.6668 25.3335C27.1268 25.3335 27.5002 25.7068 27.5002 26.1668V27.8335C27.5002 28.2935 27.1268 28.6668 26.6668 28.6668Z" fill="white"/>
<path d="M26.6668 42.7681C26.2068 42.7681 25.8335 42.3948 25.8335 41.9348V39.1164C25.8335 38.6564 26.2068 38.2831 26.6668 38.2831C27.1268 38.2831 27.5002 38.6548 27.5002 39.1164V41.9364C27.5002 42.3964 27.1268 42.7681 26.6668 42.7681ZM26.6668 35.7181C26.2068 35.7181 25.8335 35.3448 25.8335 34.8848V32.0648C25.8335 31.6048 26.2068 31.2314 26.6668 31.2314C27.1268 31.2314 27.5002 31.6048 27.5002 32.0648V34.8848C27.5002 35.3448 27.1268 35.7181 26.6668 35.7181Z" fill="white"/>
<path d="M26.6668 48.6668C26.2068 48.6668 25.8335 48.2935 25.8335 47.8335V46.1668C25.8335 45.7068 26.2068 45.3335 26.6668 45.3335C27.1268 45.3335 27.5002 45.7068 27.5002 46.1668V47.8335C27.5002 48.2935 27.1268 48.6668 26.6668 48.6668Z" fill="white"/>
<path d="M16.6668 26.9999C16.3285 26.9999 16.0101 26.7932 15.8868 26.4582C15.7251 26.0265 15.9435 25.5465 16.3751 25.3865L42.8751 15.4915C44.1635 15.0082 45.6768 15.7315 46.1168 17.0299L49.1218 25.8982C49.2685 26.3349 49.0351 26.8065 48.6001 26.9549C48.1685 27.1032 47.6918 26.8682 47.5435 26.4332L44.5385 17.5649C44.3918 17.1315 43.8885 16.8949 43.4568 17.0515L16.9568 26.9465C16.8618 26.9832 16.7635 26.9999 16.6668 26.9999Z" fill="white"/>
</g>
<defs>
<clipPath id="clip0_182_6822">
<rect width="40" height="40" fill="white" transform="translate(12.5 12)"/>
</clipPath>
</defs>
</svg>
