<svg width="40" height="40" viewBox="0 0 40 40" fill="none" xmlns="http://www.w3.org/2000/svg">
<g clip-path="url(#clip0_693_1920)">
<path d="M40 20C40 20.92 39.2533 21.6667 38.3333 21.6667H1.66667C0.746667 21.6667 0 20.92 0 20C0 19.08 0.746667 18.3333 1.66667 18.3333H38.3333C39.2533 18.3333 40 19.08 40 20ZM11.6667 36.6667H8.33333C5.57667 36.6667 3.33333 34.4233 3.33333 31.6667V28.3333C3.33333 27.4133 2.58667 26.6667 1.66667 26.6667C0.746667 26.6667 0 27.4133 0 28.3333V31.6667C0 36.2617 3.73833 40 8.33333 40H11.6667C12.5867 40 13.3333 39.2533 13.3333 38.3333C13.3333 37.4133 12.5867 36.6667 11.6667 36.6667ZM38.3333 26.6667C37.4133 26.6667 36.6667 27.4133 36.6667 28.3333V31.6667C36.6667 34.4233 34.4233 36.6667 31.6667 36.6667H28.3333C27.4133 36.6667 26.6667 37.4133 26.6667 38.3333C26.6667 39.2533 27.4133 40 28.3333 40H31.6667C36.2617 40 40 36.2617 40 31.6667V28.3333C40 27.4133 39.2533 26.6667 38.3333 26.6667ZM31.6667 0H28.3333C27.4133 0 26.6667 0.746667 26.6667 1.66667C26.6667 2.58667 27.4133 3.33333 28.3333 3.33333H31.6667C34.4233 3.33333 36.6667 5.57667 36.6667 8.33333V11.6667C36.6667 12.5867 37.4133 13.3333 38.3333 13.3333C39.2533 13.3333 40 12.5867 40 11.6667V8.33333C40 3.73833 36.2617 0 31.6667 0ZM1.66667 13.3333C2.58667 13.3333 3.33333 12.5867 3.33333 11.6667V8.33333C3.33333 5.57667 5.57667 3.33333 8.33333 3.33333H11.6667C12.5867 3.33333 13.3333 2.58667 13.3333 1.66667C13.3333 0.746667 12.5867 0 11.6667 0H8.33333C3.73833 0 0 3.73833 0 8.33333V11.6667C0 12.5867 0.746667 13.3333 1.66667 13.3333Z" fill="#FDFEFC"/>
</g>
<defs>
<clipPath id="clip0_693_1920">
<rect width="40" height="40" fill="white"/>
</clipPath>
</defs>
</svg>
