<svg width="48" height="48" viewBox="0 0 48 48" fill="none" xmlns="http://www.w3.org/2000/svg">
<g clip-path="url(#clip0_693_1917)">
<path d="M38 4H36V2C36 0.896 35.104 0 34 0C32.896 0 32 0.896 32 2V4H16V2C16 0.896 15.104 0 14 0C12.896 0 12 0.896 12 2V4H10C4.486 4 0 8.486 0 14V38C0 43.514 4.486 48 10 48H38C43.514 48 48 43.514 48 38V14C48 8.486 43.514 4 38 4ZM10 8H38C41.308 8 44 10.692 44 14V16H4V14C4 10.692 6.692 8 10 8ZM38 44H10C6.692 44 4 41.308 4 38V20H44V38C44 41.308 41.308 44 38 44ZM32.794 30.704C32.794 31.462 32.266 32.1 31.662 32.436L28.534 34.176L29.922 37.962C30.19 38.696 29.948 39.518 29.324 39.988C28.686 40.468 27.806 40.462 27.174 39.974L24.062 37.568L20.95 39.974C20.318 40.462 19.438 40.468 18.8 39.988C18.176 39.518 17.934 38.696 18.202 37.962L19.59 34.176L16.462 32.436C15.858 32.1 15.33 31.462 15.33 30.704C15.33 30.062 15.888 29.352 16.792 29.352H21.286L22.478 24.786C22.666 24.062 23.316 23.558 24.062 23.544C24.808 23.558 25.458 24.062 25.646 24.786L26.838 29.352H31.332C32.236 29.352 32.794 30.06 32.794 30.704Z" fill="#62AA38"/>
</g>
<defs>
<clipPath id="clip0_693_1917">
<rect width="48" height="48" fill="white"/>
</clipPath>
</defs>
</svg>
