<svg width="44" height="44" viewBox="0 0 44 44" fill="none" xmlns="http://www.w3.org/2000/svg">
<rect width="44" height="44" rx="22" fill="#EBFFEE"/>
<path d="M23.3272 6.74386C23.551 6.5505 23.9581 6.30626 24.2431 6.20449C24.5484 6.08237 25.0165 6.00096 25.4134 6.00096C25.8306 5.99078 26.2886 6.06202 26.6651 6.19432C26.9806 6.30626 27.4895 6.39785 27.7846 6.39785C28.0695 6.39785 28.5478 6.45891 28.8226 6.5505C29.1076 6.63192 29.535 6.84563 29.7792 7.02881C30.0235 7.21199 30.3491 7.56818 30.4916 7.81242C30.6748 8.11773 30.8987 8.32126 31.2141 8.47391C31.4686 8.58586 31.7739 8.84028 31.896 9.02346C32.0283 9.19646 32.1097 9.43053 32.0792 9.5323C32.0486 9.62389 31.9265 9.73583 31.7942 9.77654C31.6721 9.81725 31.3464 9.92919 31.0615 10.031C30.7867 10.1327 30.4509 10.3159 30.3288 10.4482C30.1965 10.5703 29.9115 10.784 29.6876 10.9265C29.4637 11.069 29.2093 11.3336 29.1177 11.5168C28.9956 11.7508 28.9651 12.0053 29.0058 12.453C29.0363 12.8499 29.1788 13.3384 29.4332 13.8778C29.6367 14.3256 29.8708 14.9463 29.9522 15.2516C30.0336 15.5569 30.1049 16.1777 30.1049 16.6255C30.1049 17.0733 30.0845 17.6228 30.0438 17.8467C30.0031 18.0706 29.881 18.5489 29.7792 18.9153C29.6775 19.2816 29.4129 19.9126 29.1992 20.3095C28.9956 20.7166 28.5478 21.4289 28.212 21.8767C27.8762 22.3347 27.2554 23.0063 26.8381 23.3829C26.4107 23.7492 25.9121 24.1665 25.393 24.5634L25.5559 25.0519C25.6882 25.4386 25.6983 25.6319 25.6068 26.0695C25.5559 26.3545 25.4846 26.5784 25.4541 26.5479C25.4337 26.5173 25.3625 26.2934 25.3014 26.039C25.2506 25.7846 25.0776 25.4589 24.9249 25.2961C24.7723 25.1435 24.5789 25.0213 24.4975 25.0213C24.4161 25.0213 24.2431 25.0926 23.8869 25.3266L24.2939 25.7134C24.528 25.9169 24.7723 26.2731 24.8435 26.497C24.9453 26.7921 24.9554 27.0465 24.8944 27.4129C24.8435 27.6978 24.7315 27.993 24.6501 28.0744C24.5178 28.2067 24.5077 28.1863 24.5585 27.8708C24.6094 27.5961 24.5585 27.4129 24.3448 27.0567C24.1922 26.8023 23.8971 26.497 23.6732 26.3748C23.4595 26.2426 23.1134 26.1408 22.9201 26.1408C22.7267 26.1408 22.3807 26.2324 22.1568 26.3443C21.9329 26.4563 21.6683 26.67 21.5564 26.8328C21.4546 26.9855 21.3427 27.1788 21.3122 27.2602C21.2714 27.3722 21.2409 27.3518 21.2002 27.189C21.1697 27.0567 21.1086 26.9549 21.0679 26.9549C21.017 26.9651 20.6201 27.1788 20.1724 27.4434C19.7348 27.708 19.1852 28.1049 18.9511 28.3288C18.7273 28.5527 18.4423 28.9394 18.3202 29.1938C18.2082 29.4482 17.964 29.9469 17.8012 30.3133C17.6282 30.6796 17.4246 31.2088 17.3229 31.4836C17.2313 31.7685 17.0379 32.2468 16.8853 32.5521C16.641 33.0406 16.5698 33.1119 16.3052 33.1119C16.122 33.1119 15.9897 33.1729 15.9694 33.2645C15.9592 33.3459 15.7455 33.8955 15.5012 34.4857C15.1349 35.3813 15.0229 35.5645 14.7888 35.6357C14.626 35.6764 14.5243 35.6662 14.5243 35.6052C14.5243 35.5441 14.4632 35.5034 14.4021 35.5034C14.3309 35.5034 14.0358 35.9715 13.7406 36.5516C13.4557 37.1215 13.13 37.6609 13.0283 37.7525C12.9265 37.8441 12.7433 37.9458 12.6212 37.9865C12.4584 38.0272 12.3261 37.9764 12.1734 37.8237C11.9902 37.6304 11.9699 37.5184 12.0309 37.2335C12.0716 37.0401 12.5703 35.9207 13.1504 34.7402C13.7203 33.5596 14.911 31.1376 15.7963 29.3465C16.6817 27.5554 17.7503 25.3572 18.1879 24.4616C18.6255 23.5661 19.5821 21.5918 20.325 20.0856C21.0679 18.5794 21.8413 16.9715 22.0551 16.5237C22.2483 16.1188 22.583 15.4227 22.8334 14.9018L22.9099 14.7428C23.1745 14.2136 23.5714 13.3181 23.8055 12.7583C24.0294 12.1986 24.3448 11.4761 24.5077 11.1606C24.701 10.7739 24.7621 10.5703 24.6705 10.5703C24.6094 10.5703 24.355 10.7637 24.1311 10.9978C23.8971 11.242 23.6426 11.588 23.5714 11.7712C23.49 11.9442 23.3984 12.0968 23.3577 12.0968C23.3068 12.0968 23.2254 11.9238 23.1643 11.7101C23.0931 11.4964 23.0727 11.1097 23.1134 10.8044C23.144 10.5093 23.2152 10.1734 23.2763 10.0615C23.3475 9.91901 23.3475 9.85795 23.2763 9.85795C23.2152 9.85795 23.0524 9.9699 22.9099 10.1124C22.7674 10.2548 22.6351 10.3668 22.6148 10.3668C22.5843 10.3668 22.5435 10.265 22.5232 10.1429C22.5028 10.0106 22.5537 9.7053 22.6351 9.45088C22.7267 9.19646 22.8794 8.88098 22.971 8.73851C23.0626 8.59604 23.1745 8.42303 23.205 8.36197C23.2661 8.2602 23.2254 8.25002 23.0524 8.34162C22.9201 8.41285 22.7064 8.54515 22.5639 8.6571C22.4214 8.75886 22.2789 8.85045 22.2382 8.84028C22.1874 8.84028 22.1975 8.68763 22.2382 8.50444C22.2891 8.33144 22.4621 7.93455 22.625 7.62924C22.7878 7.32394 23.1033 6.92704 23.3272 6.74386Z" fill="#02542D"/>
</svg>
